<svg id="Layer_1" data-name="Layer 1" xmlns="http://www.w3.org/2000/svg" viewBox="0 0 317.85 201.66"><title>GooglePlus</title><path d="M162.9,154.14c-14,0-28,.08-42-0.05-3.81,0-5.29,1.09-5.16,5.17,0.31,9.65.3,19.33,0.06,29-0.1,4.12,1.18,5.53,5.37,5.47,14.16-.2,28.32-0.08,42.48,0,6.07,0,6.47.62,4.72,6.31-7.69,25-33.09,37.4-58.25,34.65-35-3.82-58.22-33-54.33-68.3,2.51-22.79,15.14-39.44,36.08-48.61,20.48-9,40.39-6.69,58.43,7.05,2.76,2.11,4.32,2,6.64-.39,6.83-7.07,13.87-13.93,20.81-20.89,4.51-4.52,4.49-4.86-.38-8.74-22.33-17.8-47.87-24.83-75.88-20.52C59.09,80.76,30.37,105,18.62,146.13,7,186.75,18.18,222.42,50,250.44c23.08,20.29,50.75,27.35,81,23,33.84-4.88,58.73-22.43,72.47-54.25,8.11-18.8,9.7-38.57,7.31-58.81-0.54-4.58-2.32-6.35-7-6.29C190.23,154.26,176.56,154.14,162.9,154.14Zm109.46-15.28c0,4-.26,8,0.07,12,0.39,4.77-1.86,6.13-6.16,6.06-8-.13-16,0.15-24-0.11-4-.13-5.35,1.32-5.13,5.2a117.69,117.69,0,0,1,0,13c-0.23,4.37,1.62,5.92,5.89,5.81,7.82-.2,15.66.07,23.49-0.08,4.18-.08,6,1.39,5.9,5.82-0.24,8,0,16-.1,24-0.06,3.78,1.38,5.58,5.25,5.48,4.5-.11,9-0.12,13.49,0,4,0.11,5.75-1.52,5.66-5.63-0.16-7.83.13-15.66-.09-23.49-0.13-4.51,1.59-6.31,6.12-6.2,8,0.19,16,0,24,.05,3.57,0,5.23-1.48,5.16-5.06-0.07-4.16-.18-8.34,0-12.49,0.27-4.85-2-6.49-6.58-6.36-7.16.2-14.33,0.09-21.49,0-6.71-.07-7.15-0.52-7.19-7.07,0-7.83-.1-15.66,0-23.49,0.05-3.57-1.31-5.22-5-5.11q-7.24.21-14.49,0c-3.74-.12-5,1.64-4.91,5.17C272.49,130.53,272.38,134.7,272.36,138.87Z" transform="translate(-14.15 -73)"/></svg>