<svg id="Layer_1" data-name="Layer 1" xmlns="http://www.w3.org/2000/svg" viewBox="0 0 200 200"><defs><style>.cls-1{fill:#fff;}</style></defs><title>shirt_merch</title><path d="M351,209v1a35.4,35.4,0,0,0-4.11,2.46q-16.62,13.17-33.19,26.46l-11.14-9.85V340.85H199.07V229.27l-10.76,9.67c-8.23-6.58-16.37-13.17-24.61-19.63-4.13-3.24-8.46-6.22-12.7-9.32q0-.5,0-1c10.73-10.47,21.43-21,32.23-31.36a18.93,18.93,0,0,1,5.71-3.81c9.84-4.07,19.8-7.83,29.63-11.93,2.69-1.12,4.38-.79,6.59,1.17,15.53,13.79,36.13,13.79,51.65,0,2.23-2,3.93-2.26,6.6-1.14,9.83,4.09,19.79,7.86,29.63,11.93a19,19,0,0,1,5.71,3.82C329.57,188,340.27,198.54,351,209Z" transform="translate(-151 -151)"/><path class="cls-1" d="M151,210c4.24,3.1,8.57,6.08,12.7,9.32,8.24,6.45,16.38,13,24.61,19.63l10.76-9.67V340.85H302.55V229.07l11.14,9.85q16.62-13.27,33.19-26.46A35.4,35.4,0,0,1,351,210V351H151Q151,280.5,151,210Z" transform="translate(-151 -151)"/><path class="cls-1" d="M351,209c-10.73-10.46-21.43-21-32.24-31.35a19,19,0,0,0-5.71-3.82c-9.84-4.07-19.8-7.84-29.63-11.93-2.67-1.11-4.37-.84-6.6,1.14-15.51,13.81-36.12,13.82-51.65,0-2.21-2-3.9-2.3-6.59-1.17-9.83,4.1-19.79,7.86-29.63,11.93a18.93,18.93,0,0,0-5.71,3.81C172.43,188,161.73,198.53,151,209q0-29,0-58H351v58Z" transform="translate(-151 -151)"/></svg>