<svg id="Layer_1" data-name="Layer 1" xmlns="http://www.w3.org/2000/svg" viewBox="0 0 2964.48 1962.24"><title>Swecque Heraldic</title><path d="M1904.64,0c3.05,0.91,6.09,1.89,9.16,2.71,14.86,4,27.86,11,38.39,22.47a75.5,75.5,0,0,1,13.95,21.67c9.33,21.83,9.53,44.12,2.91,66.66a111.15,111.15,0,0,1-16.5,34.48c-13.41,18.4-19.64,39.3-22.76,61.44-4.45,31.49-4.81,63.19-3.33,94.82,1.28,27.44,3.39,54.86,6.66,82.19,3.19,26.68,6.91,53.27,10.54,79.88,2.38,17.43,5.54,34.74,8.13,52.14,2.91,19.61,5.58,39.25,7.19,59,0.77,9.57,1.7,19.11,1.91,28.71a15.92,15.92,0,0,0,.54,3.78,3.34,3.34,0,0,0,3.51,2.66c3.51-.1,7-0.32,10.53-0.53,9.6-.57,15.61,4.65,19.81,12.51,1.5,2.81,2.36,5.95,3.73,8.83,3.65,7.66,8.34,14.57,16.38,18.12,12.64,5.58,25.3,7,36.95-2.4,4.45-3.61,8.4-7.86,12.49-11.91a10.21,10.21,0,0,0,2-3.22c1.56-3.64.42-7.77-3.34-8.7-11.57-2.88-17-11.8-22.05-21.2-1.52-2.81-3-5.64-4.3-8.58-3.2-7.5-4.88-15.19-2.72-23.37,0.9-3.39,1.46-6.88,2.06-10.35a14.21,14.21,0,0,0-.09-6.65c-0.47-1.56-2.51-2.56-3.81-1.6a45.1,45.1,0,0,0-5.13,4.28c-2.49,2.48-4.78,5.16-7.21,7.71-7,7.36-15.51,8.79-24.63,5.17a42.92,42.92,0,0,1-21.79-19.43,18.44,18.44,0,0,1-2.48-9.18c0-14,5.11-25.55,17.26-33.29,3.5-2.23,7.2-4.16,10.89-6.06a10.18,10.18,0,0,1,6.47-1.36c2.3,0.41,4.36,1.28,5.17,3.7s-0.49,4.4-2.37,5.77c-2.06,1.5-4.36,2.67-6.5,4.07a19.91,19.91,0,0,0-7.22,7.54c-4.31,8.46.6,15.11,7.55,17.58,2.31,0.82,4.45-.07,6.39-1.24a58.2,58.2,0,0,1,13.17-5.7,47.17,47.17,0,0,1,12.3-1.68c12.2-.45,19.92,5.94,24.73,16.3,2.41,5.19,3.86,10.83,5.64,16.31s3.86,10.83,7.55,15.42c5.41,6.72,12.34,10,21,9.45a3.54,3.54,0,0,0,2.38-1.15c0.63-.84,0-1.9-0.72-2.5-7-5.65-7.53-13.72-8.13-21.74a11.74,11.74,0,0,1,1.62-7.38,4,4,0,0,1,4-2.07,3.56,3.56,0,0,1,3,2,43,43,0,0,1,1.69,5.45c2.39,8.72,9,13.1,17.92,11.82a18.06,18.06,0,0,0,3.71-.93,141.08,141.08,0,0,0,27.42-13.68,2.31,2.31,0,0,0,1.23-2.51c-2.23-2-5.29-1.44-8-2a62.51,62.51,0,0,1-17.8-7c-15-8.56-21.13-29.63-14.91-43.48,4.55-10.13,15.39-17.39,25.77-16.57a18.1,18.1,0,0,1,4.65,1c3.57,1.28,4.27,5.29,1.27,7.53a50.68,50.68,0,0,1-5.75,3.45c-7.3,4.08-6.8,15.52-1.25,19.88a18.33,18.33,0,0,0,4,2.62c7.39,3.13,15.25,4.19,22.24.1A89.62,89.62,0,0,1,2190,510.13c3-.45,3.73-2.4,2.05-4.83-1.45-2.1-3.12-4-4.74-6-1.42-1.73-3.17-3.25-4.31-5.14-7.45-12.3-18.68-19.71-31.57-25.21a21.79,21.79,0,0,0-13.1-1.56c-10.14,2-20.39,1.85-30.62,1.57-13.18-.36-26-11.81-28-24.68a24,24,0,0,1,3.33-15.66,12.4,12.4,0,0,1,4-4c5.15-3.33,9.56-1.42,10.56,4.54a27.8,27.8,0,0,1,.12,5.71c-0.4,9.85,5,16.59,14.58,17.86a60.9,60.9,0,0,0,9.58.15,3.74,3.74,0,0,0,2.44-1.13c0.71-.8.25-1.88-0.48-2.55-6.43-6-9.72-14.22-15.11-21-1.74-2.17-2.73-5.08-3.58-7.8a32.92,32.92,0,0,0-15.24-19c-2.47-1.47-4.73-3.3-7.18-4.79-5-3.07-8-7.17-7.6-13.37s-3.17-10.18-7.33-13.87a3.1,3.1,0,0,0-5.19,1.82,62.59,62.59,0,0,0-.56,7.61c-0.16,3.51.13,7.08-.41,10.52-1.29,8.22-5.82,14.22-13.73,17-6.64,2.37-13.17,4.9-19.58,7.85a27,27,0,0,1-8.33,2c-2.39.26-4.27-1.15-5.29-3.39-0.9-2-.28-3.73,1.06-5.29a19.44,19.44,0,0,1,2-2.09c3.25-2.8,3.87-6.31,3.37-10.42a37.08,37.08,0,0,1,.18-8.58c0.93-8.22,5.2-14.28,12.41-18.29,2-1.09,4-2.08,5.83-3.32a18.66,18.66,0,0,0,5.89-6.23c4.42-7.7,2.66-11.6-6.05-13.76-5.4-1.34-10.81-.95-16.21-0.14-3.67.55-6.31,2.95-8.9,5.35a26.32,26.32,0,0,1-15.34,7.26c-5.91.63-11.5-.18-16.38-3.92-0.76-.58-1.56-1.12-2.31-1.72-4.28-3.48-8.57-3.84-13-.27a40.82,40.82,0,0,1-5.65,3.63c-3.34,1.86-5.6,1.89-7,.25-1.81-2.07-.95-4.21,0-6.26,2.29-5,4.93-9.68,8.89-13.57a50.9,50.9,0,0,0,9-12.34c5.93-11,19.6-15.49,31.37-10.54a45.28,45.28,0,0,1,13,8c6.72,6.11,15,6.61,23.27,7.21a2.08,2.08,0,0,0,1.61-.78,1.93,1.93,0,0,0,0-1.77c-5.15-6.77-11.09-12.4-20-13.8a52.33,52.33,0,0,1-5.59-1.35c-11.54-3.15-18.78-10.48-21.5-22.2-0.43-1.87-1-3.7-1.51-5.55a10.65,10.65,0,0,0-6.82-7.48,34.12,34.12,0,0,1-6-2.9c-2.23-1.43-2.08-5,.05-6.63a11.48,11.48,0,0,1,7.13-2.5c11.19-.09,22.39-0.24,33.57,0,7.43,0.15,12.6,4.09,15.5,10.94a35,35,0,0,1,2.92,13,17.24,17.24,0,0,0,3.69,10.71c5.54,6.87,12.17,12.82,17.19,21.66,4.17-10.56,5.72-19.55-1.14-28.16a27.14,27.14,0,0,1-5.4-12.14,81.68,81.68,0,0,0-2.63-9.22c-2.87-9.06.11-16.31,6.88-22.36a30.94,30.94,0,0,1,3.91-2.77c2.16-1.4,3.15-3.09,1.78-5.62a9.47,9.47,0,0,1-1-2.67,3.84,3.84,0,0,1,3.76-4.53,16.84,16.84,0,0,1,4.71.61,23.14,23.14,0,0,1,9.07,5.21c4.33,3.94,14.79,22.28,15.87,28,1.42,7.49.12,14.58-2.86,21.54-2.67,6.25-7.68,11.1-10.25,17.3s-0.61,13.4-3.15,19.79a38.27,38.27,0,0,0-1.91,6.43,12.8,12.8,0,0,0,3.48,12.34c4.29,4.32,8.39,8.81,14.2,11.22a11.45,11.45,0,0,1,4.06,2.51c6.54,7.12,15.75,11,22.08,18.36a3.89,3.89,0,0,0,1.72.55c0.8-.91.31-1.8-0.05-2.67-4-9.87-2.55-19.43,1.62-28.84,3.66-8.26,9.42-14.39,18-17.63,1.8-.68,3.59-1.37,5.34-2.15a30.47,30.47,0,0,0,4.27-2.16c6.48-4.2,6.26-10.77-.5-14.21-1.7-.86-3.6-1.32-5.38-2a23.71,23.71,0,0,1-3.45-1.63,3.23,3.23,0,0,1,0-5.55,10.14,10.14,0,0,1,2.58-1.19c9.29-2.19,20,2.65,25.48,11.43s5.09,19.06-1.2,26.89c-2.88,3.58-6.77,5.81-10.69,8-3.35,1.87-6.85,3.5-10.12,5.49a17.17,17.17,0,0,0-8.59,15.16c-0.13,7.38,3,13.28,9.75,16.24,9.12,4,18.11,8.07,26,14.32a3,3,0,0,0,2.64.31c1.3-.6,1.43-2.08,1.13-3.32a35.06,35.06,0,0,1,.6-18c3.68-13.2,11.49-22.61,24.71-27.23,5.44-1.9,10.6-1.9,15.81.61,5.79,2.79,11.45,5.74,15.7,10.77,3.1,3.67,4.45,7.75,2.95,12.46-0.82,2.57-2.41,4.54-5.29,5-2.48.36-4.33-.86-5.77-2.72-0.78-1-1.29-2.2-2-3.28a13.37,13.37,0,0,0-22.91.09c-8.47,13.93-2.22,27,12.3,30.7a95.2,95.2,0,0,0,40,1.75c13-2.26,26.16-1.54,39.26-1,2.8,0.11,5.6,1.22,8.34,2.07,3.05,0.94,6,2.26,9.06,3.15a63,63,0,0,1,20.44,10.3c8.16,6.1,20.34,6.42,28.87,1.18a15.16,15.16,0,0,0,7.35-10.78c1.41-8.83,2.92-17.67,3-26.66,0-2.62-.4-5.19-2.26-7.15q-5.62-5.9-11.48-11.57a4.24,4.24,0,0,0-6.09-.15,83.34,83.34,0,0,1-13.23,9.5c-8.54,4.76-13.08,3.22-16-5.94-1.66-5.21-3.34-10.35-6.2-15-2-3.34-3.56-3.74-7.16-2-1.73.82-3.34,2-5.12,2.6-11.58,4.23-23.3-1.95-26-13.92-1.35-5.91-2.12-12-3-18a15.55,15.55,0,0,1,0-4.76c0.76-4.69,4-7.21,8.8-6.93,3.88,0.23,7.48,1.63,11.11,2.9,6,2.11,12,4.44,18.51,4.8a12.84,12.84,0,0,1,5.49,1.57c6,3.44,12.66,4.22,19.35,5,6,0.73,12,1.81,18,2.55,3.2,0.39,4.81-.83,5.76-3.79,0.19-.61.28-1.25,0.47-1.86,2.65-8.31.8-15-6.77-19.93-3.76-2.47-7.31-5.37-11.86-6-9.65-1.31-18.49-5-27.36-8.67-2.36-1-4.87-1.68-7.11-2.88-7.68-4.09-15.23-4-22.89.08a34.85,34.85,0,0,1-6.3,2.3c-8.28,2.54-15.45.32-20.67-6.26-8-10-13.66-21-9.88-34.53,1-3.74-.19-6.9-1.74-10.11a100.31,100.31,0,0,1-7.42-19.72,16.73,16.73,0,0,1,.82-11.25c3-6.58,8.15-9.91,15.31-9a136.8,136.8,0,0,1,15,3.13c6.53,1.59,13,3.34,19.49,5.12,4.16,1.14,7.59.67,9.73-3.6s6-6.49,10.74-7.07c2.71-.33,4.84-1.43,6-4.07,3.82-8.55,11.35-10.7,19.72-11,6.44-.23,12.74,1.12,19,2.63a230.39,230.39,0,0,1,39.09,13.06c12.48,5.55,25.43,5.77,38.59,5.16,4.35-.2,7.89-2.35,11-5.27a14.16,14.16,0,0,0,4.38-14.81c-0.55-2.16-1.48-4.23-2.1-6.38-0.56-1.93-.57-3.92,1.31-5.16s3.7-.53,5.4.49a23.71,23.71,0,0,1,7,6.49c2.06,2.85,3.94,5.83,5.79,8.81,4.43,7.16,5.89,14.55,3,22.88s-7.06,15-14.92,19.13c-2.83,1.49-5.7,2.91-8.46,4.52-2,1.18-2.21,3.19-.27,4.68,6.66,5.09,11.77,11.75,17.88,17.38a29,29,0,0,1,8.75,14.57c5,19.82,15.76,37,25.36,54.65,5.38,9.92,19.82,11.21,27.31,3.93,3-2.91,6-5.73,7.38-9.88a16.4,16.4,0,0,1,2.18-4.2,3.52,3.52,0,0,1,5.72.31,16.06,16.06,0,0,1,1.86,4.37c2.81,12.22-3.71,25.75-15.66,29.44-16.64,5.14-32.89,4.79-46.42-8.59-1.31-1.29-2.4-3.12-4.72-2.67-1.5.29-2,2.81-1,6,2.1,6.35,5.07,12.4,5.7,19.25,0.47,5.11,1.17,10.19.34,15.29-0.42,2.59-.55,5.09.59,7.51,2.34,5,3.4,10.31,4.94,15.52A74,74,0,0,0,2498.95,416c4.77,6.63,11.75,9.85,19.52,11.07,5.25,0.82,10.08-1.21,14.22-4.57,2.74-2.23,3.57-5.23,3-8.62-0.4-2.52-1.18-5-1.4-7.53a4.78,4.78,0,0,1,5.61-5,11.4,11.4,0,0,1,3.61,1.15c7.07,3.79,13.41,17,6.14,26.74-10.9,14.64-26.32,19.79-42.18,14.21a100.65,100.65,0,0,1-21.42-10.65c-3.84-2.49-6.58-6-9.49-9.43a84.57,84.57,0,0,0-5.82-6.32c-0.72-.69-1.78-0.09-2.41.73a2,2,0,0,0-.4.86c-2.21,14.57-4.32,29.13-1.2,43.85a27.12,27.12,0,0,1,.84,6.65c-0.43,10.19,4.32,18.55,9.31,26.78a33,33,0,0,0,11.41,11.46c3.3,2,6.47,4.13,9.67,6.26a28.29,28.29,0,0,0,9.67,4.08c4.68,1,9.33,2.29,14.05,3.12,12.34,2.16,22.75-1.43,30.86-11.07,5.29-6.29,6.63-13.66,5.28-21.62-0.48-2.83-1.36-5.63-1.52-8.47a5,5,0,0,1,7.3-4.79,15.7,15.7,0,0,1,4.57,3.38,23.07,23.07,0,0,1,6.52,14.64c0.76,14.57-3.2,27.29-15.84,36a56.34,56.34,0,0,1-23.93,9.26c-10.93,1.66-21.73.78-32.49-.6-10-1.29-19-5.52-27.51-10.81-15-9.37-28.78-20.23-39.54-34.51a15.14,15.14,0,0,0-2-2,2.26,2.26,0,0,0-3.27.78,15.62,15.62,0,0,0-1,2.68c-1.6,7.18-3,14.4-4.76,21.55a18.35,18.35,0,0,0,2.07,13.86c0.79,1.39,1.61,2.78,2.27,4.23,5.62,12.31,16.17,16.51,28.67,17.38a69.19,69.19,0,0,0,8.62-.32c1.6-.09,3.18-0.42,4.78-0.44,3.78,0,6.42,1.51,6.83,4,0.54,3.3-1.25,5.51-3.81,7.14a24.07,24.07,0,0,1-10.84,3.58c-14.2,1.31-27.4-1.1-38.91-10.17-1.44-1.13-2.66-2.79-4.78-2.88,1.9,5.56,2.08,5.39,6.14,10,9.37,10.65,20.76,18.9,31.92,27.46q25.89,19.85,51.48,40.08a68,68,0,0,1,8.19,8c12.43,13.79,25,27.42,39.75,38.85a79.29,79.29,0,0,0,14.49,9.32c13.3,6.32,26.64,12.41,41,16.21,7.7,2,15,5.39,22.55,8.16,4.8,1.77,9.52,3.81,14.41,5.29,11.74,3.53,21.2,10.44,29.06,19.57a199.2,199.2,0,0,1,24,34.63c10,18.36,22,35.18,37.28,49.69a112.57,112.57,0,0,0,29,20.19c15.47,7.4,31.13,5.47,46.26-1.69,4.49-2.12,7.24-6.24,9.51-10.53,3.83-7.21,6.19-14.73,4.33-23A18.61,18.61,0,0,0,2817,789.76a30.09,30.09,0,0,0-16.94-1.85c-7.62,1.33-15.3,1.18-23,1.24-1,0-1.92,0-2.88,0-19.68-.3-31.67-14.89-34.76-31.25-1.36-7.22-2.28-14.53-3.15-21.83s-5.19-11.42-12.12-13c-5.61-1.32-11.17-2.73-16.35-5.41-7.59-3.93-12.08-10.27-14.55-18.22-0.48-1.53-.6-3.19.79-4.45,1.62-1.48,3.5-1.33,5.39-.67a8.38,8.38,0,0,1,4.86,4.41c2.83,5.93,7.78,8.09,14,8.44,4.15,0.23,8.27.83,12.42,1.08a21.4,21.4,0,0,1,15.23,7.14,74.34,74.34,0,0,1,6.63,8.17c4.09,6.09,5.73,12.8,4,20.1a32.87,32.87,0,0,0-1,12.37c0.58,3.87,2.45,5.72,6.32,5.91a45.26,45.26,0,0,0,7.65-.34c7-.84,14-1.73,20.92-2.77,10.82-1.61,21-.06,30.6,5.35,1.94,1.1,4.19,2.07,5.55,3.72,7.11,8.64,14.16,17.34,16.82,28.66a42.74,42.74,0,0,1-2.69,28.15c-6.39,13.94-16.37,24.33-31.61,28.75-2.73.79-5.45,1.63-8,2.41-0.28,2.37,1.3,2.14,2.39,2.27,15.69,1.77,30.51-2,44.95-7.55a42,42,0,0,0,18.27-13.63c3.5-4.55,6.55-9.46,9.63-14.32a22.65,22.65,0,0,0,3.64-11.78,38.41,38.41,0,0,1,.72-5.71c2.68-15.37-.31-29.9-6.44-44a50.79,50.79,0,0,0-6.6-10.55c-10-13-22.49-23.52-35.16-33.86-13.21-10.78-27.77-19.34-42.33-28.05-15.67-9.38-31.93-17.6-48.18-25.85-5.13-2.6-10.35-5.06-15.71-7.15-11.51-4.5-21.09-12.06-30.78-19.34a128,128,0,0,1-35.08-40.18q-3.76-6.7-7.61-13.33c-12.48-21.39-15-44.54-12.33-68.66a73.9,73.9,0,0,1,6.43-24c3.57-7.51,6.79-15.19,10.53-22.61,8-15.75,21-26.28,36.15-34.58,3.64-2,7.43-3.7,11.06-5.7,11-6.07,23.11-9.36,35.14-12.65a227.51,227.51,0,0,1,32.84-6.86c14.71-1.77,28.43-7.41,42.16-12.62,12.36-4.69,21.55-13.57,28.95-24.35a28.32,28.32,0,0,0,4.65-18.28,77.31,77.31,0,0,0-5.43-24.25,28.38,28.38,0,0,0-7.63-10.91c-5.54-4.84-11.09-9.68-16.81-14.29a22,22,0,0,0-16.05-5.15,40.34,40.34,0,0,1-4.8.08c-11.4-.4-19.43,5-25.44,14.3a20.23,20.23,0,0,0-3.05,15.56,37,37,0,0,0,6,14,36.76,36.76,0,0,1,3.82,6.61c1.35,3.23-1.41,6.59-4.92,6.33a8.84,8.84,0,0,1-5.28-2c-10.81-9.41-18.35-20.49-17.67-35.6a21.27,21.27,0,0,1,1-6.61c4.7-12.16,10.92-23.17,23.47-29,2.61-1.22,5.12-2.65,7.74-3.82a35.66,35.66,0,0,1,20.62-2.9c6.94,1.15,13.91,2.3,20.72,4a51.78,51.78,0,0,1,29.5,20.17c3.21,4.38,6.24,8.92,9.15,13.51,5.28,8.32,8.13,17.32,7.33,27.31-0.49,6.05-.72,12.13-1.27,18.18a33.22,33.22,0,0,1-7.52,18.38c-5.27,6.44-10.4,13-15.73,19.36a46.71,46.71,0,0,1-10.24,8.6c-12.42,8.3-26.31,13-40.48,17.14-22.41,6.55-44.73,13.43-67.22,19.71-13.61,3.8-25.14,10.92-35.69,20A38.89,38.89,0,0,0,2682,474.72c-2.89,6.38-7.42,12-8.43,19.23-0.93,6.64-2.29,13.27-2.67,19.94a114.25,114.25,0,0,0,6.95,47.14,127.82,127.82,0,0,0,7.46,15.54,16.83,16.83,0,0,0,4.54,4.83c11.07,8.69,22,17.57,33.43,25.8,6.19,4.46,13.11,8,19.91,11.52,14.47,7.54,29.07,14.82,43.62,22.2,1.14,0.58,2.45,1.26,3.45,0s0.31-2.4-.32-3.53a6.08,6.08,0,0,0-.52-0.81c-9.57-12.2-10.57-26.4-9.49-41a21.55,21.55,0,0,1,1.58-6.48c7.7-18.77,19.93-34.27,35.56-46.93,7.43-6,16-10.49,24.8-14.51q26.16-12,52.31-24.05a65.25,65.25,0,0,0,17.38-11.84c3-2.85,5.67-6.13,8.83-8.8,8.27-7,9.21-16.39,9-26.18a16.71,16.71,0,0,0-4-10.6c-6.8-7.92-15.27-12.56-26-12.14-7.41.29-12.65,4-15.75,10.72-0.94,2-1.54,4.2-2.39,6.27a14.21,14.21,0,0,1-3.71,5.53,4.53,4.53,0,0,1-7.23-1.52,20.63,20.63,0,0,1-1.31-13.14,24.07,24.07,0,0,1,4.34-9.54c8.62-11.27,22.27-18.73,39.78-15.18,25.08,5.08,39,27.41,40.55,45.74s-4.23,34.7-20.08,46.21c-9.85,7.15-19.84,14.06-30.33,20.2-8.87,5.19-18.54,8.69-28.13,12.23-10.56,3.89-20.52,8.94-30.41,14.19q-5.93,3.15-11.77,6.47c-2.49,1.42-5.32,2.59-7.27,4.59-11.2,11.49-19.42,24.54-20.23,41.18-0.09,1.92,0,3.85-.08,5.76a36.89,36.89,0,0,0,6.49,23.61c3.39,5,6.67,10.16,10.1,15.18a33.35,33.35,0,0,0,8.68,8.87c9.29,6.36,17.74,13.64,24.54,22.71a17.12,17.12,0,0,0,2.74,2.65,2.47,2.47,0,0,0,3.86-1.28,17.08,17.08,0,0,0,.73-2.78c1.89-11.35,7.82-19.9,17.06-26.75A111.39,111.39,0,0,1,2901,643.34c8.19-3.62,16.11-7.86,24.35-11.34,11.63-4.91,19.52-20.09,12.63-36.84a18.48,18.48,0,0,0-5.82-7.51c-7-5.52-16.54-2.25-18.7,6.51-0.53,2.15-.41,4.46-0.8,6.66a40.78,40.78,0,0,1-1.61,6.46,3,3,0,0,1-4.83,1,11.71,11.71,0,0,1-2.56-2.81c-4.36-7.87-4.71-15.94-.09-23.71,5.85-9.85,18.12-14.49,29.19-11.51,15,4,28.93,20.87,30.14,36.41,0.2,2.55,0,5.13.22,7.67,1.34,13.59-4.92,24.13-13.62,33.56a55.22,55.22,0,0,1-22.33,14.52,75.9,75.9,0,0,1-11.94,3.58c-9.35,1.68-17.57,5.69-25.35,10.95-11.33,7.66-16,20.06-12,33.32a91.41,91.41,0,0,0,4.51,11.61c2.38,5.24,4.89,10.43,7.6,15.52,6.91,13,10,27.11,10.51,41.54a93.45,93.45,0,0,1-5.66,35.83,132.06,132.06,0,0,1-8.12,18.43q-16.9,30.27-51.19,36.72a84.92,84.92,0,0,1-33.33-.25c-2.19-.45-4.37-1-6.59-1.29-17.22-2-32.93-7.75-46.89-18.13a5.32,5.32,0,0,0-.8-0.53c-2.51-1.24-5-4.42-7.66-2.9-3.57,2-1,5.75-.64,8.7,1.33,11.11,3.1,22.11,1.61,33.43a29.43,29.43,0,0,0,3.74,18.58c6.32,10.66,15.84,17.67,28.45,18.79,5.68,0.51,11.46-1.44,16.46-4.5,8.18-5,9-13.71,1.93-20.06-4.1-3.67-8.66-6.66-14.68-5.71a10.51,10.51,0,0,1-2.86,0c-2.73-.33-4.81-1.93-4.94-3.78-0.18-2.63,1.54-4.08,3.5-5.26a17.38,17.38,0,0,1,9.22-2.18c7.16,0,14,1.84,20.53,4.39,5.85,2.27,15.24,17,15,23.36-0.43,10.69-4.27,19.78-12.71,26.88-10.56,8.89-22.23,13.73-36.23,11.6a4.64,4.64,0,0,0-1.9.12,1.47,1.47,0,0,0-1.1,2.14,19.71,19.71,0,0,0,7.37,7.39c10.26,6.19,21.12,10.73,33.39,10.61,10.54-.1,21.08.49,31.59-1.4,6.9-1.24,13.11.86,18.53,5.78,6.38,5.79,13,11.34,19.5,17,11.14,9.63,17.55,21.84,21.69,35.51a182.18,182.18,0,0,0,6.58,18c0.51,1.21,1.5,2.15,3,1.74a3.31,3.31,0,0,0,2.25-2.84,4.19,4.19,0,0,0,0-1.9c-1.38-4.69,0-8.79,2.44-12.77a23.86,23.86,0,0,1,11.33-10c4.71-1.95,9.57-3.56,14.41-5.18a14.23,14.23,0,0,1,4.7-.74c4.42,0.08,7.13,4.23,4.76,8a24.16,24.16,0,0,0-3.59,14.6c0.26,5.68-2.48,10.51-4.7,15.45-1.28,2.84-3.82,4.2-6.7,5s-5.64,1.17-8.08,2.89c-3,2.14-3.68,5.35-1.25,8.25a34.33,34.33,0,0,0,4.94,4.48c3.74,3,7.57,5.89,11.34,8.86a10.94,10.94,0,0,1,4.24,8.26c0.35,5.1.92,10.18,1.18,15.29,0.29,5.59-4,9-9.43,7.45a16.72,16.72,0,0,1-5.92-3,18.13,18.13,0,0,0-9.47-4.27c-8.69-1-13.82-6-16-14.33-0.32-1.24-.74-2.45-1.12-3.67-0.49-1.59-1.3-3.07-3-3.38-2.22-.4-3.56,1.09-4.52,2.84a11.35,11.35,0,0,0-.33,10.19c0.85,2.06,2.19,3.91,3.17,5.92,4.41,9.1,1.15,18.16-8,22.3-0.29.13-.62,0.18-0.91,0.31-6.46,2.89-6.74,3.35-6.49,10.93a38.22,38.22,0,0,1,.11,3.82,3.84,3.84,0,0,1-4.89,3.23c-4.44-1.08-7.06-4.15-8.93-8.06-3.34-7-5-14.49-6-22.13-0.3-2.22-.27-4.5-0.75-6.67-1.42-6.49-5-11-11.91-12.18-2.2-.39-4.42-0.75-6.6-1.24a13,13,0,0,0-9.31,1.07,33.82,33.82,0,0,1-4.32,2.06c-3,1.1-5.75-.76-6.19-4.08a10.67,10.67,0,0,1,1.59-7.35c4-6.21,6.81-13,9.77-19.74,4-9.14,12.19-12,21.46-8.11,2.94,1.25,5.73,2.85,8.6,4.25a10.89,10.89,0,0,0,8.36.88c2.75-.88,4.29-3.32,3.24-6a91.83,91.83,0,0,0-12.55-22.57c-2.8-3.61-6.59-5.43-11-4.37-12.25,2.94-23.39-1-34.59-5-1.21-.42-2.46-0.75-3.62-1.28a29.43,29.43,0,0,0-22.38-1.29c-6.07,2-12.72,1.35-18.7,4-2.11.94-4.44,0.28-6.61-.28-6.54-1.7-12.86-3.76-18-8.6-2.34-2.22-4.25-1.86-5.25.77-2.6,6.88-5,13.82-7.39,20.78a15.35,15.35,0,0,0-.54,4.75c0,6.84,2.82,10,9.69,10.47a73,73,0,0,0,8.63-.11,70.93,70.93,0,0,1,19,1.92c7.8,1.74,11.11,6.94,9.71,14.89a45.59,45.59,0,0,1-1.93,7.41c-1.51,4.23-4.83,6.7-9,8a9,9,0,0,1-9-1.91c-2.49-2.12-3-4.84-1.16-7.63,0.86-1.33,2.14-2.41,2.89-3.79a2.89,2.89,0,0,0-.19-2.6,3,3,0,0,0-2.49-1,48.49,48.49,0,0,0-6.39,1.91c-3.92,1.38-7.8,2.86-11.72,4.25-3.51,1.25-6.83.7-10.21-.83a42.78,42.78,0,0,1-25.1-37.79c-0.09-4.11-.38-8.22-0.55-11.75-1.58-1.28-2.63-1-3.22-.29-9.42,11.66-22.67,13.49-36.32,14.1-6.71.3-13.44,0.07-20.16,0.13a31.76,31.76,0,0,0-11.32,1.78c-8,3.08-10.19,8.05-6.71,15.82,1.7,3.79,3.79,7.4,5.57,11.16a48.14,48.14,0,0,1,3.29,8c3.52,13.12-7.28,24.68-20.68,22.1a44.22,44.22,0,0,1-19.71-9.46,8.94,8.94,0,0,1-1.92-2.12,4.46,4.46,0,0,1-.61-4.52,3.27,3.27,0,0,1,4-1.77c4,1,8,2.4,12,3.49,5.1,1.39,8.11-1.07,8-6.24-0.08-3.53-1.86-6-4.5-8.06a65.24,65.24,0,0,1-13.07-14c-8.31-11.87-7.33-25.61,3-35.73,10.18-10,22-16.44,36.85-15.66,7.4,0.39,14.69-.69,21.94-2a21.84,21.84,0,0,0,5.4-1.82,4.17,4.17,0,0,0,2.51-3.82c-0.08-5.47-.21-11-4.29-15.31a127.94,127.94,0,0,0-10.94-10.74,70.36,70.36,0,0,1-24.26-39.23c-3.24-13.68-4.34-27.13.45-40.64,0.75-2.1.89-4.45,1.8-6.46,5.32-11.86,4.93-24.37,4-36.82-1-13.71-2.33-27.44-7.75-40.33-1.11-2.65-2.22-5.31-3.51-7.88s-3.46-4-4.16-3.07c-1.12,1.5-.37,3.06-0.13,4.6a96.59,96.59,0,0,1-.54,34.34,67.77,67.77,0,0,0-1.58,8.49c-0.94,12.19-6.4,22.66-12.24,33-1.73,3.06-3.53,6.09-5.22,9.18-10.5,19.15-25.23,33.61-45.79,41.8-6.53,2.6-12.85,5.74-19.3,8.54-11.92,5.17-21.78,13.43-31.53,21.67-7.27,6.14-9.67,14.86-9.81,24.17-0.07,4.31,2.47,7,6,9.17,6.52,4,12.9,8.33,19.43,12.36a44.27,44.27,0,0,1,12.06,10.85c1.54,2,3.23,4.18,3.89,6.55,2.34,8.46,1.93,17.09.33,25.63-0.54,2.89-2.77,5-5,6.92-5.54,4.85-11,9.83-17.8,12.93-4.39,2-7.33,4.81-8.48,9.62a17.48,17.48,0,0,1-8.59,11.09,14.93,14.93,0,0,1-22.08-7.8c-3-8.26-1.08-15.79,4.23-22.49a12.71,12.71,0,0,1,9.25-4.51,34.9,34.9,0,0,1,11.43.9c7.51,1.86,12.95-2.24,18.12-6.57,2.45-2.05,2.19-5.25,1.2-8.08a18.29,18.29,0,0,0-10.11-11,57.3,57.3,0,0,0-10-3.36c-9.09-2.18-16.69-6.39-21.59-14.66a6.42,6.42,0,0,0-.56-0.78c-1.94-2.38-3.35-2.6-5.58-.45-5.75,5.56-11.39,11.2-17.61,16.28a58.64,58.64,0,0,1-21.89,11.51c-8.64,2.36-17.08,5.18-25,9.55a79,79,0,0,1-20.66,7.61c-12.44,2.82-24.84,5.79-37.24,8.7-0.53,2.2,1.23,1.93,2.27,2.11,6.61,1.17,13.26,2.06,19.56,4.63,3.61,1.47,7.54,1.33,11.38,1.18a23.91,23.91,0,0,1,12.1,2.35c8,4.11,13,10.28,12.95,19.66a60.3,60.3,0,0,0,2.73,18.89c1.57,5,4.53,7.44,9.81,7.22,3.51-.15,7,0,10.56,0H2823c3.52,0,7.05-.12,10.55.14a21.41,21.41,0,0,1,6.48,1.49,6.82,6.82,0,0,1,4.22,6.89,6.48,6.48,0,0,1-4.71,5.53,27.41,27.41,0,0,1-6.57,1.12c-3.51.19-7,.1-10.56,0.1H2353c-3.52,0-7,0-10.56,0-3.37,0-6,.89-8.14,4-1.95,2.83-3.67,2.83-6.6,1.38a17.55,17.55,0,0,1-3.27-2c-3.44-2.8-7.44-3.49-11.71-3.39-2.56.06-5.12,0-7.68,0q-164.15,0-328.31,0c-14.39,0-28.76.3-43.13,1.62-12.4,1.14-24.89,1.51-37.34,2.17-11.51.61-23,1.71-34.43,2.67-17.52,1.47-35,3.33-52.48,5.34-21.93,2.53-43.82,5.44-65.35,10.36a190.64,190.64,0,0,0-23.91,7c-5.07,1.89-9.19,1.44-13.57-1.33a318.12,318.12,0,0,0-28.56-15.74,126.29,126.29,0,0,0-23.2-9.09,22.37,22.37,0,0,0-19.16,2.91c-40.06,25.88-79.68,52.36-117.36,81.64-9.09,7.07-17.88,14.52-26.79,21.81-1.49,1.21-2.85,2.58-4.39,3.72-3.06,2.26-4.72,2.32-7.75-.11q-10.1-8.11-20-16.45c-18.66-15.63-38.48-29.71-58.32-43.79-23.23-16.49-47.24-31.8-71-47.44a23.15,23.15,0,0,0-18.08-3.68c-15.09,2.73-28.48,9.42-41.7,16.62-5.62,3.06-11.11,6.35-16.52,9.78a13.11,13.11,0,0,1-12.67,1.29c-19-7.11-38.87-10.6-58.82-13.45-19.62-2.8-39.29-5.46-59-7.24s-39.43-4.1-59.27-4.82c-14.37-.52-28.69-2.12-43-3q-13.89-.82-27.82-0.83-169-.09-337.91-0.09c-5.89,0-11.25.52-16.12,4.58-3.9,3.25-5.62,2.89-8.79-1a9,9,0,0,0-7.44-3.51c-3.52,0-7-.07-10.56-0.07H145.56c-3.84,0-7.69.09-11.51-.17a24.3,24.3,0,0,1-6.49-1.47,5.78,5.78,0,0,1-3.92-5,6.81,6.81,0,0,1,3.3-6.5,11.71,11.71,0,0,1,6.36-1.9c3.84-.14,7.68-0.19,11.51-0.19H532.64c3.2,0,6.4.07,9.6,0,6.87-.26,8-1.13,10.09-7.9a39.12,39.12,0,0,0,2.13-12.25c0-1,0-1.92,0-2.88,0.42-15.9,9.38-24.9,25.21-25a41.41,41.41,0,0,0,15-2.45,53.42,53.42,0,0,1,8.38-2c3.4-.71,6.81-1.36,10.19-2-0.4-2.77-2.29-2.45-3.73-2.71-14.16-2.59-28.15-5.93-42-9.85a48.67,48.67,0,0,1-11.48-4.81c-8.1-4.81-17-7.54-25.9-9.94a54.78,54.78,0,0,1-21.82-11.62c-5.57-4.79-10.92-9.85-16.41-14.74-3.37-3-5.25-3.05-7.86.69-5.26,7.55-12.51,11.59-21.25,13.68a64.07,64.07,0,0,0-10.81,3.89,17.59,17.59,0,0,0-9.43,10.37c-1.45,3.85-.67,6.93,2.66,9.35,5.5,4,11.14,7.49,18.58,5.1,2.66-.85,5.7-0.66,8.57-0.69,5.67-.07,9.65,2.69,12.41,7.57a24.92,24.92,0,0,1,3.32,14.73c-0.56,6.68-3.82,11.49-10,14-5.83,2.33-12.89.25-17.44-4.76a19.8,19.8,0,0,1-4.39-8.43,11,11,0,0,0-6.52-7.79c-6.88-3-12.23-8.11-18.06-12.56a18.67,18.67,0,0,1-7.78-15.71c0-1.6.06-3.21-.08-4.8-1.17-13.76,5.69-23.13,16.57-30.26,6.15-4,12.4-7.91,18.59-11.89a54,54,0,0,0,4.72-3.29c3.29-2.65,4.38-6,3.5-10.22-2.07-10-5.56-19.08-15-24.6-12.7-12.3-28.39-19.58-44.54-25.83a87.16,87.16,0,0,1-41.41-33A199.8,199.8,0,0,1,345.63,856c-2.72-6.89-2.58-14.47-4.34-21.6a73.62,73.62,0,0,1-1.89-18.08c0-4.81.06-9.59,1.32-14.29a19,19,0,0,0,.43-4.74,1.93,1.93,0,0,0-.92-1.47,2,2,0,0,0-1.74.23c-2,1.7-3,4.1-3.9,6.5-4.08,11.11-8.06,22.12-8.35,34.3-0.19,7.93-1.5,15.89-1.62,23.9a43.1,43.1,0,0,0,2,14.18c1.88,5.78,3.27,11.72,5.18,17.48,6.81,20.57.17,56-19.65,73.45-5.49,4.84-11.21,9.52-15.72,15.45a19.76,19.76,0,0,0-4.34,12.41c0,4.34,1.55,6.85,5.72,7.67,5.63,1.1,11.37,1.78,17.09,2.35,3.49,0.34,7,.09,10.55.15,16,0.3,28,8.46,37.34,20.52,6.86,8.87,5.73,22.6-1.84,32.27-3.14,4-7,7.45-10.54,11.14-1.55,1.61-3.24,3.11-4.63,4.85a8.52,8.52,0,0,0-1.48,7.28c0.55,2.73,2.88,4.65,5.57,4,3.72-.89,7.31-2.32,11-3.3,2.39-.64,5.08-1.79,7,0.95,1.36,2,.28,5-2.78,7.4a47.7,47.7,0,0,1-18,8.8c-7.12,1.79-13.37-.2-18.29-5.63s-5.69-12-2.63-18.75c2.25-4.95,4.58-9.88,7.24-14.62,4.82-8.56,2.06-15.87-8.71-18.73-5-1.33-10.17-1-15.28-1.07-8.62-.12-17.21.07-25.83-1.33-10-1.62-18.31-5.45-24.36-13.71a7.41,7.41,0,0,0-1.52-1.2c-2.3.37-1.65,2.28-1.73,3.65-0.22,4.15-.31,8.31-0.4,12.47-0.33,15.64-12,31.67-26.53,36.62a12.79,12.79,0,0,1-8.47.07c-3.93-1.34-7.81-2.84-11.73-4.22-2.1-.74-4.21-1.5-6.36-2a2.54,2.54,0,0,0-3.16,1.49,3.18,3.18,0,0,0,.48,2.58c1,1.25,2.37,2.15,3.37,3.38a4.42,4.42,0,0,1-.24,6.09c-3.5,4.06-8.33,5-12.94,2.44a14.36,14.36,0,0,1-7.17-8.64,44.23,44.23,0,0,1-1.18-5.63c-1.37-8.86,1.48-13.08,10.39-15.21a73.53,73.53,0,0,1,20-1.77,52,52,0,0,0,9.56-.32c4.18-.62,6.14-2.88,6.7-7a23,23,0,0,0-.82-10.45q-2.88-8.65-6.07-17.19c-1.32-3.55-2.75-4-5.56-1.66-5.55,4.68-12,7.26-19,8.69-2.21.45-4.47,0.9-6.63,0.06-7.53-2.94-15.68-3-23.39-5.09a19.57,19.57,0,0,0-12.2.86q-10.82,3.91-21.86,7.25c-5.87,1.78-11.88,2.56-18,1a27.38,27.38,0,0,0-4.75-.57,9.49,9.49,0,0,0-8.51,3.55c-5.85,7.31-9.93,15.64-13.53,24.21-0.92,2.18.54,4.46,2.88,5.24a10,10,0,0,0,7.49-.35c2.62-1.19,5.15-2.57,7.75-3.8,11.4-5.41,19.19-2.79,24.19,8.51,2.85,6.44,5.4,13,9.39,18.86a9,9,0,0,1,1.48,7.32,4.67,4.67,0,0,1-5.74,3.68,5.72,5.72,0,0,1-1.79-.66c-6.6-4.58-13.53-2.34-20.38-1a11.6,11.6,0,0,0-8.49,7.12,39.64,39.64,0,0,0-2.8,10.13c-0.9,5.68-2.07,11.32-3.28,16.94a25,25,0,0,1-4.33,9.55,13.11,13.11,0,0,1-5.9,4.73c-3.15,1.21-6.07-.54-6.11-3.78a28.37,28.37,0,0,1,.23-2.86c0.71-7.93.67-8-7-11.13-9.39-3.86-13-12.69-8.94-21.84,1-2.33,2.55-4.48,3.4-6.87,1.46-4.13,1.36-8.18-1.81-11.68a3.28,3.28,0,0,0-5.53.82c-0.77,2.09-1.17,4.31-1.85,6.44-2.1,6.6-6.19,11.15-13.28,12.36-5.15.87-9.79,2.63-13.7,6.27a9.06,9.06,0,0,1-6.26,2.07c-3.4,0-6.69-2.28-6.69-5.59,0-6.69.48-13.39,1-20.06,0.19-2.26,1.91-4,3.68-5.46,3.73-3,7.5-6,11.33-8.85,2.06-1.55,4.13-3,5.43-5.32a5.62,5.62,0,0,0-1.7-7.62,17.16,17.16,0,0,0-7.11-2.71c-4.53-.91-7.16-3.75-8.75-8-2-5.39-4.48-10.61-3.84-16.63,0.39-3.65-1.11-6.76-2.92-9.91-2.76-4.78-.13-9,5.35-8.81a18.58,18.58,0,0,1,6.41,1.69,48.54,48.54,0,0,0,9,3.27c5.64,1.22,9.57,4.88,12.92,9.35,3.21,4.28,5.13,8.84,3.78,14.31a5.69,5.69,0,0,0-.09,1.91,3.17,3.17,0,0,0,2,3c2,0.65,2.91-.68,3.51-2.25,1.83-4.78,4-9.47,5.29-14.39a119.91,119.91,0,0,1,6.25-17.09,59.32,59.32,0,0,1,13.24-18.64c7.53-7.41,15.58-14.2,23.62-21a20.84,20.84,0,0,1,18-4.69c11.14,2.07,22.35,1.49,33.51,1.22,10.75-.26,20.59-4.21,29.77-9.68a29.55,29.55,0,0,0,7.78-7.07,2.13,2.13,0,0,0,.43-2.62,2.32,2.32,0,0,0-1.69-.7c-1.59,0-3.19.18-4.78,0.26-17.78.93-30.57-7.75-40.34-21.57-3.35-4.74-4.43-10.57-4.58-16.45a14.41,14.41,0,0,1,2-8.29c2.39-3.78,4.87-7.52,7.38-11.22a11.35,11.35,0,0,1,5-4.32c7.47-3,15.14-5.21,23.32-4.56,3.59,0.29,6.9,1.35,9.34,4.25a4,4,0,0,1-1.6,6.34,10,10,0,0,1-5.64.56c-5.65-.94-10,1.92-13.89,5.25-7.57,6.45-6.12,16.8,2.87,21.31,10.25,5.14,20.31,4.63,30.18-1.18,12.62-7.43,18.49-19,17.26-33-1-11.7.44-22.93,1.92-34.33a26.27,26.27,0,0,0,.25-5.7,1.92,1.92,0,0,0-2.76-1.73c-4.51,2.38-9,4.83-13.3,7.58-5.68,3.64-11.44,7.11-18,9-14.17,4.11-28.63,7.62-43.29,8.15-22.24.81-42.28-6-58.46-22.05a44.81,44.81,0,0,1-6.21-7.28c-20-31-25.62-63.74-11.55-98.65,3.46-8.59,7.86-16.8,11.89-25.15,4.52-9.39,5.32-18.95,1.79-28.87a20.94,20.94,0,0,0-7.87-10.57c-7.93-5.53-16.26-10.15-25.81-12.34-8.43-1.94-16.63-4.47-24.27-8.78A53.84,53.84,0,0,1,6.84,636.16c-2-3.6-3.12-7.8-6.84-10.24V604.8c2.37-2.33,3.14-5.49,4.4-8.41a47.2,47.2,0,0,1,22.4-24.11c13.91-7.08,25.43-1.1,32.27,6.33a21.88,21.88,0,0,1,1.71,27.47c-1.1,1.56-2.43,3.12-4.68,2.64-1.82-.39-2.44-2-2.77-3.57-0.78-3.75-1.23-7.58-2.14-11.3-2-8.07-10.25-11.25-17.26-6.8a15.79,15.79,0,0,0-7.06,8.82c-4.74,16.17-1.56,27.79,11.9,35.68,1.1,0.65,2.24,1.24,3.4,1.78,6.37,3,12.72,6,19.15,8.88,9.38,4.17,18.25,8.91,26.28,15.59A41.66,41.66,0,0,1,101.49,679c3,10.44,3.15,10.32,10.63,2.44,6.16-6.49,12-13.55,19.61-18.26a42.14,42.14,0,0,0,12.77-12.72c3.42-5,6.65-10.18,9.86-15.34a29.29,29.29,0,0,0,4.51-12.55c1.55-15.31.55-30.1-9.29-43-1.16-1.52-2.16-3.17-3.22-4.77-3.79-5.75-8.94-9.88-15-13.18a414.24,414.24,0,0,0-55.66-25.82,68.59,68.59,0,0,1-12.26-5.44c-10.88-6.7-21.84-13.26-32-21.15a50.45,50.45,0,0,1-14.24-16.51c-17-32.28,3.92-68.48,32.61-75.16,16.31-3.8,31.76,1.22,41.69,14.69,4.44,6,5.51,12.84,4,20.07-0.66,3.26-2.49,5.22-4.72,5.36-3,.18-4.69-1.76-6-4.05a50.9,50.9,0,0,1-2.37-5.24c-0.62-1.47-1.1-3-1.77-4.46q-4.48-9.59-15.09-10c-9.57-.38-17.54,3.48-24.16,9.91a20.43,20.43,0,0,0-6.13,16.61c0.67,9.11,2.53,17.74,10.29,23.88,2,1.58,3.57,3.66,5.41,5.44,6.73,6.51,14.2,11.84,23.06,15.21,5.07,1.93,9.87,4.56,14.79,6.86,9.85,4.6,19.57,9.54,29.61,13.69,9.54,3.95,18.28,9.19,26.85,14.77a58.5,58.5,0,0,1,9.7,7.78c10.84,11,20.39,22.89,26.57,37.28,3.64,8.48,5.24,16.93,3.55,26.13-1.64,8.93-3.93,17.47-9.5,24.84a10.21,10.21,0,0,0-1,1.66c-0.57,1.16-1.24,2.5.13,3.39a3.17,3.17,0,0,0,2.65-.08c5.13-2.61,10.09-5.56,15.29-8,13.31-6.28,26.5-12.8,39.15-20.34,3.56-2.12,7.33-4,10.64-6.45,10.5-7.85,20.8-16,31.25-23.91a28.66,28.66,0,0,0,7.82-9.53c11-20.12,13.61-41.73,11.78-64.17a100.86,100.86,0,0,0-1.59-13.28c-2.14-9.82-7.48-18.28-12.26-26.94a19.67,19.67,0,0,0-4.34-5.07C262.85,452.73,249.33,444.07,233,440c-26.38-6.59-52.26-15-78.23-23-11.18-3.47-20.89-9.58-30.47-16a27.07,27.07,0,0,1-5.58-5.23c-5.31-6.4-10.47-12.92-15.67-19.41A33.34,33.34,0,0,1,95.57,355a72.28,72.28,0,0,0-.93-12.41,37.94,37.94,0,0,1,1.4-18c3.39-11.37,10.5-20.46,18-29.16,8.42-9.71,18.93-16.09,32-17.89,4.75-.65,9.41-1.89,14.14-2.68a34.46,34.46,0,0,1,19.76,2.26c5,2.16,10.06,4.35,14.52,7.37,9.06,6.13,14.2,15.37,18.27,25.25a12.56,12.56,0,0,1,.54,2.82c2.54,16.19-4.78,28.5-15.66,39.32a11.81,11.81,0,0,1-4.15,2.29,5.14,5.14,0,0,1-6.14-1.31,4.91,4.91,0,0,1-.7-5.41,35.08,35.08,0,0,1,3.35-5.79c3.22-4.54,4.8-9.68,6.12-15a14.73,14.73,0,0,0-1.52-11.13c-6-10.64-14.07-18.24-27.39-17.58a25,25,0,0,1-3.84-.06c-7.91-.83-14.33,2.28-20,7.41a121.77,121.77,0,0,1-9.47,8.11c-6.76,4.92-10.85,11.57-13.62,19.27-3.44,9.58-3.54,19.43-2.75,29.39a15.36,15.36,0,0,0,3,8c7.9,10.67,16.8,20.3,29.54,25.16,13.74,5.24,27.54,10.69,42.21,12.53,13.42,1.68,26.32,5.32,39.34,8.58a123.78,123.78,0,0,1,25.25,9.06c5.72,2.85,11.49,5.64,17,8.89,14,8.26,26.28,18.45,33.74,33.2,5,10,9.19,20.41,13.56,30.72a31.79,31.79,0,0,1,2.26,8.31c1.61,12.67,3.2,25.32,1.35,38.16-2,13.79-5.88,26.82-13.15,38.79-3.48,5.74-6.69,11.65-10,17.52A72.81,72.81,0,0,1,294,612a153.84,153.84,0,0,1-33,30.44c-9.07,6.05-17.83,12.42-28.5,15.48a32.5,32.5,0,0,0-6.9,3.35c-18,10.31-37,19-54.85,29.65-14.9,8.87-29.27,18.28-42.65,29.27-10.39,8.54-20.72,17.12-28.95,27.9C86.74,764.36,81,782.41,84,802.91a14.14,14.14,0,0,1,.36,2.85c-0.57,9.56,3.7,17.43,9,24.78,6,8.38,12.88,16,22.86,19.85,14.77,5.73,29.87,9.52,45.91,7.69,1.14-.13,2.6.28,3.26-2-3.26-.94-6.5-2-9.81-2.81-17.07-3.94-34.35-23.49-35.07-44.59-0.41-12.16,4.22-22.17,10.51-32.2s15.5-14.89,26.35-17.52c5.66-1.37,11.45-.81,17.19-0.08,7.61,1,15.22,2,22.84,2.85a35.55,35.55,0,0,0,5.74.17c3.28-.15,5.14-2.08,6.2-5.1,1.25-3.54.42-6.94-.34-10.38-0.83-3.74-2-7.43-1.38-11.36,2.09-14.32,14.77-25.93,29.46-27,3.82-.27,7.63-0.74,11.45-1.13,4.73-.48,8.54-2.41,11-6.71a15,15,0,0,1,2.92-3.77,12.44,12.44,0,0,1,4.05-2.41,4.07,4.07,0,0,1,5.4,4.62,24.75,24.75,0,0,1-1.83,5.42c-4.23,9.07-12,13.91-21.05,16.93-2.72.9-5.59,1.36-8.39,2-6.59,1.52-10.78,5.33-11.8,12.23-0.7,4.74-1.4,9.48-2.07,14.23-0.49,3.48-.58,7.06-1.45,10.43a42.16,42.16,0,0,1-14.07,22.35c-6.21,5.17-13.68,6.79-21.51,6.88-8.63.11-17.27,0.19-25.84-1.3a27,27,0,0,0-20.94,4.86,13.93,13.93,0,0,0-5.73,7.47c-4.29,14.8,1.71,28,11.33,36.34,3.21,2.8,7.45,3.67,11.43,4.78,12.71,3.55,25.39,3.71,37.32-2.53A126.79,126.79,0,0,0,238,805.79a240.84,240.84,0,0,0,22.23-32.4c7.25-12.82,15.06-25.24,24.5-36.64,7.76-9.37,17-16.38,28.36-20.58,6-2.21,12-4.39,18-6.72,9.83-3.84,19.7-7.49,29.85-10.48a149.68,149.68,0,0,0,72.76-46.13c9.16-10.69,18.55-21.26,29.69-29.94,19.68-15.33,39.67-30.27,59.41-45.53,8.12-6.28,14.81-14.08,21.63-21.7,0.89-1,2.37-2.39.84-4.1a2.75,2.75,0,0,0-1,.19c-0.79.54-1.55,1.13-2.28,1.74-11.54,9.54-24.92,12.53-39.54,11.12a28,28,0,0,1-10.08-2.93,9.92,9.92,0,0,1-4.69-4.62,4.55,4.55,0,0,1,2.36-6.36c2.46-1,5-.85,7.55-0.65a114.06,114.06,0,0,0,12.44.55A30,30,0,0,0,529.91,542c5.29-5.05,8.72-11.76,10.83-18.91a9.92,9.92,0,0,0,.2-3.81,157.66,157.66,0,0,0-6.17-28.07c-0.49-1.62-2.73-1.89-3.92-.56-0.85,1-1.54,2-2.36,3-11.88,14.06-25.58,25.94-41.77,34.84-7.61,4.18-15.55,7.69-24.18,9a113,113,0,0,1-35.33.23c-21.08-3.45-35.05-17.53-37.15-38-0.82-8,1.08-15.25,6.38-21.45a10.75,10.75,0,0,1,5.46-3.72,5.21,5.21,0,0,1,6.55,4,12.9,12.9,0,0,1-.2,4.71A54.48,54.48,0,0,0,407,493.74,22.19,22.19,0,0,0,413.84,511c8.53,8.59,18.43,12.35,30.46,9.57,3.74-.86,7.5-1.66,11.23-2.55,10.91-2.6,19.45-9.36,28-16.12a15.06,15.06,0,0,0,3.61-4.45c4.95-8.92,10.68-17.57,10.1-28.5a20.41,20.41,0,0,1,.85-5.68c3.51-14.68,1.56-29.23-1.07-43.75a2.18,2.18,0,0,0-4-1.27c-2,2.09-3.81,4.31-5.59,6.56a33.54,33.54,0,0,1-7.48,7.38A99.12,99.12,0,0,1,453,444.67c-11.69,3.5-29.87-2.53-38.15-16.16a19.65,19.65,0,0,1,4-24.47,11.18,11.18,0,0,1,6-2.83c3.62-.43,6.37,2.09,5.91,5.65-0.25,1.89-.92,3.72-1.32,5.59-1.28,6,0,9,5.23,11.93,3.4,1.88,7.07,3.24,11,2.79,8.3-1,15.43-4.47,20.39-11.26a77.32,77.32,0,0,0,11.25-22.16c1.56-4.87,3.07-9.75,4.74-14.59a16.24,16.24,0,0,0,.84-6.57c-0.76-11.26,0-22.33,4.68-32.82,1.05-2.34,1.91-4.78,1.4-7.42a2.8,2.8,0,0,0-.86-1.64,2.09,2.09,0,0,0-2.62.23c-0.74.59-1.38,1.32-2.06,2-13.23,12.86-29,13.2-45.64,9.22a21,21,0,0,1-6-3c-8.75-5.52-13.4-17.8-10.62-27.73,1-3.65,2.6-5.49,4.66-5.3,2.67,0.24,3.74,2.26,4.51,4.4,1.9,5.32,5.41,9.3,9.84,12.69,5.89,4.51,18.91,4.29,24-4,1-1.64,2.32-3.1,3.18-4.8,5.5-10.83,12.23-21,16.85-32.3,2.79-6.83,5.1-13.8,7.27-20.82a28,28,0,0,1,7.91-12.9c6.14-5.59,11.18-12.32,18-17.21,1.92-1.37,1.73-3.54-.2-4.76a45,45,0,0,0-5.88-3.22c-11.87-5.16-16.91-15-18.76-27.06a17.36,17.36,0,0,1,.68-8.52,52.31,52.31,0,0,1,11.18-18.85,31.46,31.46,0,0,1,6.07-4.62c1.67-1.07,3.69-1.46,5.35,0,1.32,1.14,1.3,2.84.83,4.45-0.36,1.22-.87,2.41-1.23,3.63a29.32,29.32,0,0,0-.85,9.51,11.74,11.74,0,0,0,4.68,9.06c3.31,2.67,6.86,4.69,11.23,4.89,13.87,0.64,27.4-.28,40.37-6.17a185.09,185.09,0,0,1,35.43-11.89,107.23,107.23,0,0,1,18-2.78c9-.48,17.31,1.44,21.72,10.72a7.17,7.17,0,0,0,6,4.23c5.06,0.66,9,2.92,11.44,7.66,1.72,3.41,4.65,4.07,8.14,3.17,7.44-1.9,14.87-3.82,22.33-5.66A112.36,112.36,0,0,1,706,192.3c10.71-1.41,18.81,6.54,17.65,17.27a44.52,44.52,0,0,1-3.89,13.81c-1.61,3.49-3.22,7-4.94,10.4-1.51,3-2.2,6-.61,9.18,2.83,5.65,1.85,11.28-.5,16.7a117.92,117.92,0,0,1-7.21,14.6c-5,8.21-13.93,11.42-23.27,8.84a30.57,30.57,0,0,1-6.3-2.3c-7.66-4.1-15.22-4.17-22.89-.06a63.69,63.69,0,0,1-6.23,2.51c-9.19,3.72-18.25,7.78-28.25,9-3.94.48-7,2.87-10.1,5.23-11.07,8.53-10.69,7.74-8.16,21.7,0.74,4.1,2.49,5.21,6.86,4.61,6.33-.87,12.62-2.13,19-2.79,5.79-.6,11.37-1.54,16.55-4.4a18,18,0,0,1,8.3-2.14c4.9-.11,9.39-1.73,13.9-3.41a76.14,76.14,0,0,1,11.86-3.76c7.32-1.43,12,2.8,11.1,10.22a156,156,0,0,1-3.51,19.83c-2.8,11.21-13.69,17.05-24.63,13.58a39.82,39.82,0,0,1-5.16-2.5c-5-2.43-6.67-2.05-9.13,2.88-1.85,3.7-3.13,7.69-4.69,11.54a49.15,49.15,0,0,1-3,7c-2.3,3.8-5.81,4.76-9.95,3a40.22,40.22,0,0,1-4.19-2.33A78.42,78.42,0,0,1,612,361.76c-2.46-2.15-4.37-2-6.82.21-3.53,3.25-6.8,6.77-10.2,10.15-2.72,2.7-3.48,6-3.09,9.69,0.72,6.68,1.35,13.36,2.25,20a47.68,47.68,0,0,0,2.08,8.37,13.08,13.08,0,0,0,8.34,8.72c9.38,3.15,18.73,4.68,27.23-2.52a31.92,31.92,0,0,1,4-2.7c10.77-6.63,22.54-11.25,35-12.53A141.55,141.55,0,0,1,709,402.22a91,91,0,0,0,39.06-1.75c14.77-4,20.14-16.13,13.16-29.95-4.66-9.23-19-9.92-23.06-1.66a24.45,24.45,0,0,1-2.55,4.05c-1.43,1.85-3.29,3.1-5.78,2.69-2.85-.47-4.36-2.48-5.26-5a10.68,10.68,0,0,1,.29-7.51,18.5,18.5,0,0,1,6.28-8.31A64.52,64.52,0,0,1,744.33,347a18.63,18.63,0,0,1,14-.38c19.12,6.4,29.87,24.65,26.22,44.58-0.37,2-2,4.1-.12,6.4a10,10,0,0,0,2.48-1.18,70.16,70.16,0,0,1,23-13.56,19.94,19.94,0,0,0,5.18-2.49c10.69-7.91,12-16.32,5.49-26.38-1.79-2.77-4.65-4.31-7.45-5.9-4.45-2.53-9-4.86-13.23-7.77-10-7-12.75-17.38-7.91-28.7,4.26-10,16.23-16.32,26.78-14.16a10.42,10.42,0,0,1,2.63,1.08,3.23,3.23,0,0,1,.16,5.54c-1.63,1-3.48,1.55-5.2,2.39a34.6,34.6,0,0,0-5.89,3.13c-4.26,3.25-4.32,8.08-.18,11.35a29.27,29.27,0,0,0,5.81,3.3c2.61,1.21,5.34,2.15,8,3.3,3.24,1.4,6.55,2.88,8.79,5.69,9.09,11.37,13.16,24,9.06,38.5-0.36,1.26-2.09,2.49-.14,4.29,1.42-1.32,2.72-2.7,4.19-3.86,7.53-5.9,14.81-12.2,22.79-17.42a87.43,87.43,0,0,0,14.06-11.45c4.56-4.56,5.86-9.7,3.41-15.76-1.81-4.47-3.41-9.1-3.23-13.94,0.25-6.8-2.12-12.42-6.22-17.64a42,42,0,0,1-8.1-18.27,29.71,29.71,0,0,1,4.6-22.87,59.17,59.17,0,0,0,5.18-9.12,23.93,23.93,0,0,1,15.38-13.47,16.14,16.14,0,0,1,4.71-.59,3.77,3.77,0,0,1,3.47,3.87,14.4,14.4,0,0,1-.8,2.73c-1.45,4.33-1.5,4.43,2.26,6.87a29.92,29.92,0,0,1,7.7,7.12c3.26,4.33,5,9.17,3.24,14.4-3.14,9.26-3.39,19.63-10.67,27.36-2.76,2.94-2.93,7-2.84,10.89,0.12,5.62,1,8.46,4.32,13.27,1.83-2.75,3.42-5.5,5.37-8a69.8,69.8,0,0,1,7-7.87c4.9-4.61,7.88-9.84,7.66-16.86-0.16-4.88,1.69-9.41,4.24-13.57,3.42-5.58,8.36-8.72,14.94-9,2.55-.12,5.12,0,7.68,0,6.39,0,12.79,0,19.18,0a46.77,46.77,0,0,1,7.64.35,14.67,14.67,0,0,1,5.23,2.2,4.34,4.34,0,0,1,0,7.27,8,8,0,0,1-2.54,1.31c-7.35,1.6-10.47,6.68-11.47,13.62a25.26,25.26,0,0,1-.94,3.72,25.94,25.94,0,0,1-14.85,16.65,46.25,46.25,0,0,1-11,3.39,28.46,28.46,0,0,0-17.08,9.87c-1.38,1.59-4,3.11-2.46,5.59,1.08,1.75,3.5,1.09,5.37.82,7.3-1,14.44-2.23,20-8,2.36-2.46,5.79-4,8.84-5.69,8.22-4.68,16.64-3.66,25-.45a14.15,14.15,0,0,1,7.78,6.86c3.43,7,8.37,12.81,13.33,18.68a47.81,47.81,0,0,1,5.21,8c1.34,2.46,3.12,5.09.92,8-1.41,1.85-3.87,1.68-7.91-.41a12.06,12.06,0,0,1-2.48-1.45c-5.7-5-11.39-5.12-17.16-.15a18.13,18.13,0,0,1-1.6,1.06c-5.06,3.49-10.7,3.93-16.57,3.17s-10.68-4.1-15.08-7.89c-8.32-7.18-17.66-6.29-27.14-3.3-3.56,1.13-4.76,3.74-4.54,7.53a13.71,13.71,0,0,0,4.59,9.21,23.53,23.53,0,0,0,7.28,4.56c7.35,3.19,11.3,9.1,13.36,16.56,0.94,3.42,1.85,6.89.87,10.39-1.27,4.58.14,8.14,3.59,11.12a17.19,17.19,0,0,1,1.33,1.38c1.64,1.77,2.53,3.76,1.3,6.09a5.91,5.91,0,0,1-6.33,3.4,26.51,26.51,0,0,1-7.39-1.91A191.12,191.12,0,0,0,917,406.49c-6.89-2.3-11-7.41-13.06-14.28a25.59,25.59,0,0,1-1-12.32c0.55-2.83,1-5.66.12-8.54s-3.67-4-5.91-2c-4.48,3.9-8,8.38-7.6,14.77,0.31,5.42-2.44,9.06-6.71,11.89-3.2,2.12-6.3,4.41-9.55,6.43a27.17,27.17,0,0,0-11.13,12.88,130.91,130.91,0,0,1-21.89,34.6,1.77,1.77,0,0,0,1.26,2.83,71,71,0,0,0,9.57.15c10.16-.91,16-7.38,16.3-17.64a53.31,53.31,0,0,1,.71-8.56c0.51-2.61,3.4-4.1,6-3.49a12.39,12.39,0,0,1,9.13,7.75c2.33,5.84,3,11.89.58,17.8-4.45,10.85-13.59,20.72-27.43,20.32-9.59-.27-19.19.25-28.69-1.65-5.49-1.1-10.59,0-15.86,2.09-9.75,3.93-17.1,11.13-25.3,17.19a7.56,7.56,0,0,0-2.33,3c-2.31,5.42-6.11,9.72-10.08,13.92a20.07,20.07,0,0,0-1.8,2.24c-1.29,1.84-.47,3.87,1.91,4.17a82.29,82.29,0,0,1,32.3,11.48c6.5,3.87,13.55,3.17,20.49,1.33a15.45,15.45,0,0,0,7.81-5.36c5.54-6.68,4.35-14-3-18.67a74.41,74.41,0,0,1-6.41-4.14c-1.75-1.38-1.21-4.67.85-5.73a13.7,13.7,0,0,1,4.46-1.55c10.59-1.28,18.93,2.92,24.64,11.58,9.93,15.08,5.22,36.66-9.82,46.72a58.4,58.4,0,0,1-25,9.33c-1.43.19-3.33-.17-3.75,2.55A107.1,107.1,0,0,0,848.3,573c9.42,2.83,16.71-2,19.34-11.65,0.17-.62.24-1.26,0.43-1.87,1.21-3.88,3.28-5.71,5.81-5.18,2.29,0.47,3.72,2.32,3.88,5.93,0.42,9.45,0,18.7-8.35,25.31a1.79,1.79,0,0,0-.54,2.54,2.47,2.47,0,0,0,1.65.77c9.69,0.66,17.55-2.71,23.22-10.73a42.43,42.43,0,0,0,7-15.67,59.7,59.7,0,0,1,6.7-17.91c4.67-7.92,11.09-12.8,20.85-13.09a50.62,50.62,0,0,1,23.18,5.06c2,0.94,3.94,2.13,5.94,3.14a6.78,6.78,0,0,0,5.56.41,12.37,12.37,0,0,0,6.06-18.9,28.16,28.16,0,0,0-8.43-7.74,49,49,0,0,1-4.83-3.1,4.68,4.68,0,0,1-1.81-5.1,4.94,4.94,0,0,1,4.11-3.59,9.31,9.31,0,0,1,4.68.24c15.64,5.7,27.17,15.18,30.65,32.53,1.35,6.71.58,12.74-3,18.37a49.42,49.42,0,0,1-18,16.9c-9.62,5.23-20.31,3.49-28.1-4.39-2.25-2.27-4.32-4.72-6.58-7a49.1,49.1,0,0,0-5-4.44c-2.08-1.58-4.59-.25-4.66,2.48a28.8,28.8,0,0,0,.4,5.71c0.61,3.46,1.33,6.91,2.17,10.33,1.59,6.44.88,12.64-1.2,18.87-3.09,9.22-8.2,17.31-13.59,25.27-2.05,3-5,4.88-8.22,6.42-1.72.83-3.63,1.25-5.37,2-5.34,2.37-6.64,7.12-2.81,11.62a94.11,94.11,0,0,0,10.2,10.14c7.8,6.74,16.4,11.23,27.21,8.27a9.69,9.69,0,0,1,1.91-.18c10.85-.71,18.5-6.55,23.93-15.46,2.31-3.79,3.75-8.11,5.64-12.16,6.09-13,13-15.7,23-15.07,2.55,0.16,5.1.44,7.66,0.52,2.8,0.08,4-1,4.51-3.86,0.21-1.26.23-2.55,0.37-3.82,1.51-14.31,2.65-28.66,4.61-42.9,3.31-24.07,7.2-48.07,10.71-72.12s6.66-48.15,10.35-72.17c3.93-25.62,6.41-51.42,8.57-77.21,2.22-26.44,3.37-53,2.3-79.57-0.46-11.49-1.13-23-2.43-34.43a328.5,328.5,0,0,0-18.07-76.4,228.48,228.48,0,0,1-13.1-53,107.58,107.58,0,0,1,4.63-47.33,69,69,0,0,1,19.83-30.12A72.41,72.41,0,0,1,1056.83,5.1c5.45-1.8,11-3.41,16.45-5.1h42.24A54.84,54.84,0,0,0,1121,1.59c48.1,8.8,96.23,17.36,144.74,23.67,33.58,4.37,67.14,8.88,100.94,11.3,8.28,0.59,16.57,1.23,24.83,2.05,17.81,1.78,35.67,2.9,53.55,3.27,39.32,0.81,78.65.56,118-.06,2.88,0,5.75-.15,8.62-0.33q25.34-1.6,50.67-3.26c12.43-.81,24.9-1.32,37.29-2.53,21.3-2.08,42.57-4.46,63.82-7,34-4,67.83-8.76,101.25-16.14,17.14-3.78,34.1-8.38,51.15-12.61h28.8ZM1701.13,1098.25c4.11-1.27,8.25-.78,12.36-0.11,20.19,3.27,40.49,5.65,60.78,8.21,23.79,3,47.72,4.27,71.55,6.71a61.56,61.56,0,0,0,6.71.22c1.21,0,2.83.2,3.07-1.46a3.51,3.51,0,0,0-1.24-2.36c-2.29-2.22-5-4.09-7-6.51-19.29-23-29.82-48.93-25.69-79.54,0.34-2.53.73-5.06,1-7.6a1.9,1.9,0,0,0-.77-1.53,2.18,2.18,0,0,0-1.79,0,20.42,20.42,0,0,0-3.18,2.11c-30.57,24.29-62.83,46.16-95.55,67.41-6.93,4.5-14.49,8.18-20.23,14.38-7.1,2.8-22.07,12.29-28.69,18.55,8.12-3.25,14.7-6.29,20.77-10.37A23.89,23.89,0,0,0,1701.13,1098.25Zm715-113.22c-9.18,0-16.83,0-24.49,0-3.23,0-6.45-.09-9.42-1.41-9.22-4.09-17.41-9.5-22.7-18.44-0.81-1.38-1.49-2.84-2.41-4.14-3.26-4.6-6.61-5.23-11.5-2.11a45.14,45.14,0,0,0-4.48,3.57c-1.47,1.23-2.8,2.64-4.36,3.74-2.85,2-5.89,1.21-6.94-2-2.33-7.14-1.89-13.9,3.58-19.65,5.07-5.33,11.25-7.19,18.37-5.39A27.11,27.11,0,0,1,2369,951.95a40.87,40.87,0,0,0,12.35,13.22,32.25,32.25,0,0,0,17.21,5.31c4.8,0.14,7.68-4.21,11.33-6.68a26.54,26.54,0,0,0,2.2-1.85,13.92,13.92,0,0,0,5.24-8.87,51.34,51.34,0,0,1,4.67-14.56c1.68-3.63.55-5.28-3.72-5.34-7.68-.11-15.31-0.74-23-1.39-14.22-1.21-25.46-7.94-35.14-17.8a30.8,30.8,0,0,1-8.82-18.74c-0.7-6.36-1.77-12.67-1.65-19.1a26.22,26.22,0,0,0-.42-5.73,12.36,12.36,0,0,0-11.64-9.67c-5-.12-7.33,2.28-8.89,9.21a48.48,48.48,0,0,1-1.34,5.59,14,14,0,0,1-2.28,4.16,5.78,5.78,0,0,1-9.16-.13,14.44,14.44,0,0,1-2.39-4.11,35.81,35.81,0,0,1-2.12-15.1c1.09-12.64,15-22.65,27.13-18.79,14.23,4.52,24.69,11.78,27.15,31.11,0.57,4.44,1.08,8.89,1.83,13.31,1.7,10,7.4,16.75,17,20.15,2.71,1,5.43,1.93,8.2,2.71a18.39,18.39,0,0,0,21.5-8.45,47.41,47.41,0,0,0,5.84-14.14A60.63,60.63,0,0,1,2435.63,858c1-1,2.67-1.87,1.64-4.29a91.73,91.73,0,0,1-8.6,3.76c-10.26,3.34-20.24,5.16-30.25-1.69-10.21-7-14-14.55-11.78-26.82,0.8-4.4,1.62-8.81,2.08-13.26,0.42-4-.92-5.8-4.9-7.07a35.83,35.83,0,0,0-6.55-1.27c-1.57-.19-3.21.14-4.78,0-4.17-.49-5.77-4.08-3.58-7.78a12.56,12.56,0,0,1,8.14-6.26c8.2-1.82,16.07-1,22.61,4.73,5.92,5.16,9,11.46,6.21,19.64-1.78,5.13-3.17,10.4-4.69,15.62-1,3.54.28,6.25,3.13,8.35a15.13,15.13,0,0,0,8,3,30.34,30.34,0,0,0,12.3-1.45,79.79,79.79,0,0,0,13-6.14c8.86-5,18.2-7.77,28.52-6.08a40.67,40.67,0,0,0,7.66.37,43.81,43.81,0,0,1,20.4,4.6c10.18,4.88,21.23,7,32,9.92,2.28,0.62,4.92,1.51,7.19-.41,0.08-2.44-2.11-3.11-3.28-4.5-11.85-14-11.69-28.56-2.68-43.43a15,15,0,0,1,5.31-5.45c12.95-7.3,27.27-7.53,39.09,3.33,9.72,8.93,5.32,25.69-7.34,29.35a8.94,8.94,0,0,1-6.55-.25c-5.87-2.77-8.28-7.78-6.73-14.08,0.68-2.78,2-5.43,1.72-8.4a4.7,4.7,0,0,0-4.4-4.27,14.91,14.91,0,0,0-13.49,9.12,32,32,0,0,0-2,11.29,15.18,15.18,0,0,0,3.15,9.86c4.32,5.33,10,9,16.09,11.84a9.32,9.32,0,0,0,4.69.55c15.58-1.58,27.23-8.37,32.62-24,2.4-7,2.88-13.68.32-20.61-6.07-16.47-17.45-27.21-34.41-31.93-3.08-.86-6.27-1.39-9.26-2.48-11.26-4.1-22.6-3.56-34-1a85.32,85.32,0,0,1-11.3,2.13,119,119,0,0,0-30,6.17c-8.86,3.13-17.91,3.65-27.4,2.46-17.87-2.24-35.2-6.75-52.4-11.66-11.32-3.23-22.64-7.2-31.16-16.17a6.85,6.85,0,0,0-1.51-1.18c-10-5.84-18.7-13.4-26.75-21.69-3.43-3.54-7.68-5.65-12.18-7.44-4.18-1.66-8.07-1.66-11.79,1.1-6.77,5-14.25,5-22,3-1.86-.48-3.71-1-5.58-1.4a13.86,13.86,0,0,0-14.74,6.37c-2.77,4.72-2,10.45,2.31,13.8a97.6,97.6,0,0,0,10.56,6.6c3,1.78,6.4,3.05,9.2,5.13,6.74,5,13.09,12.65,8.93,25.06a50.79,50.79,0,0,1-2,5.4c-4.13,8.85-15.4,15.37-25.15,14.36a44.28,44.28,0,0,1-25.83-11.55,13.64,13.64,0,0,1-4.61-10.19c-0.05-3,2.52-4.88,5.16-3.61,2.87,1.38,5.56,3.12,8.31,4.74,3.34,2,6.74,3.74,10.8,3.34a3.31,3.31,0,0,0,3-2,3.11,3.11,0,0,0-.65-3.54,25.59,25.59,0,0,0-4.42-3.61c-4.09-2.5-8.27-4.88-12.47-7.19-4.39-2.42-7.17-6-9.37-10.53-5.19-10.56-5.44-21.61-3.66-32.83,1.17-7.41,4.09-13.92,10.2-19,5-4.1,9.89-8.11,15.71-10.89a47.18,47.18,0,0,0,11.25-7.27,8.11,8.11,0,0,0,2.84-4.87,2.51,2.51,0,0,0-2.27-2.51c-2.66.34-4.76,1.89-6.84,3.32-7.55,5.21-15.11,4.12-22.68.21-2.61-1.34-5.21-3-4.81-6.44,0.36-3.07,3.17-3.69,5.52-4.65l3.55-1.46a15.74,15.74,0,0,0,7.06-6.28c2.21-3.37,1.82-5.35-1.84-6.59a39.24,39.24,0,0,1-19.6-14.74,62.37,62.37,0,0,0-4.24-5.2c-1.54-1.7-3.45-1.55-4.87.23-4.45,5.58-4.83,11.34-.93,17.8,1.48,2.45,3.51,4.57,5,7,2.13,3.47.24,7.05-3.85,7.88a10.8,10.8,0,0,1-6.53-1c-2.05-.88-4-2-6.11-2.77-1.71-.61-3.08.22-3.95,1.81a10.2,10.2,0,0,0-1.19,6.5c1.16,7.85,3.65,15,11.25,19a27.44,27.44,0,0,1,3.29,2c3.82,2.8,3.35,7.84-.92,10.15a14.31,14.31,0,0,1-10.26,1.08c-8.06-1.8-14.95-5.55-20-12.23-5.38-7.05-6.08-8.81-14.83-.47-0.69.66-1.37,1.35-2,2-6.95,7-10.27,15.29-8.66,25.28a22.21,22.21,0,0,1,.38,5.69,5.49,5.49,0,0,1-7.88,4.35,11.24,11.24,0,0,1-3.17-2.1c-5.26-5.28-9.56-11.19-11.44-18.55-0.55-2.17-.79-4.42-1.43-6.55-1-3.44-2.89-4.76-6.41-4.4a41.85,41.85,0,0,0-14.69,4.17c-6.51,3.29-9.09,8.63-7.69,15.88a22.5,22.5,0,0,0,9.87,14.76c2.91,2,6,3.7,8.72,5.94,7.89,6.57,10.5,15.14,8.17,25-2.67,11.25-16.44,18.52-29.44,12a5.05,5.05,0,0,1-3-4.57c0-2.18,1.58-3.44,3.38-4.24,2.34-1,4.82-1.74,7.13-2.82,4.08-1.9,5-5.86,2.32-9.49a12.58,12.58,0,0,0-8.92-5.09c-6.54-.81-12-4.18-17.75-7a16.1,16.1,0,0,1-8.08-9.11c-3.11-8.2-5.06-16.53-2.49-25.31a63.28,63.28,0,0,0,1.52-6.54c1.28-7.11-1-11.27-7.94-12.91-5.88-1.38-12-1.89-18-2.53-2.13-.23-4.9-0.43-5.69,2.3-0.69,2.38,1.09,4.29,2.77,5.75a19.38,19.38,0,0,0,4.84,3c2,0.9,4.25,1.39,6.36,2.15,8.47,3,12.68,9.31,13.46,18.08a28.71,28.71,0,0,1-1.63,12.28c-1.63,4.59-2.65,9.22-1.38,14.1a9.68,9.68,0,0,1-.31,5.67c-1.42,4.13-4.87,7.31-8.11,7.16-3.83-.18-5.62-3-6.55-6.12-1.68-5.6-5.18-8.59-11-9a37.45,37.45,0,0,1-3.74-.83c-6.07-1.12-9.39-4.87-10.86-10.74a35.66,35.66,0,0,1,.08-18c1.5-5.71-.92-9.94-4.75-13.74a3.71,3.71,0,0,0-5.18-.17c-3.61,2.95-4.69,6.78-3.72,11.18,0.76,3.43,2,6.76,2.65,10.21,1.42,8-1.52,13.56-8.77,17.24-0.86.43-1.71,0.87-2.61,1.23-7.16,2.82-12.68,7.35-15.62,14.67a13,13,0,0,1-1.42,2.5c-2.82,4.08-6.34,4.38-9.42.69a19.78,19.78,0,0,1-3.14-4.8,176.76,176.76,0,0,1-6.68-16.94c-2.64-8.59-.9-17.48,8.39-23.33a92.9,92.9,0,0,0,10.07-7.32c2.54-2.13,5.06-4.5,6.27-8.91-5.49,1.59-10.54,1.94-13.78,5.82-5.24,6.27-12,9.3-19.76,10.73-5,.91-5.55,1.82-5.88,7.1-0.22,3.51-.11,7-0.31,10.55-0.8,14-1.32,28.12-2.61,42.12-1.2,13-3.18,26-4.95,39-4.3,31.65-13,61.9-28.32,90.14a290.44,290.44,0,0,1-22.59,35.62c-0.93,1.25-2.09,2.66-.88,4.25,0.88,1.15,2.36.84,3.59,0.58,2.51-.51,5-1.21,7.48-1.73,8.48-1.76,17.1-3.07,25.7-2.72,14.09,0.57,28,2.67,41.3,7.86,2.09,0.81,4.18,1.62,6.31,2.31,3.54,1.16,4.85.32,5.09-3.17,0.3-4.46.12-9,.92-13.37,5.28-28.69,30.72-50.52,59.94-51.88,14.33-.67,28,2.49,41.4,7,16.67,5.59,33,12.13,49.65,17.88,14.9,5.16,30.05,8.53,46.09,5.95a45.59,45.59,0,0,0,28.65-16c9.39-11.11,7-25.33-5.58-32.72a48.93,48.93,0,0,0-21.86-6.55c-2.87-.19-5.75-0.3-8.59-0.72a4.53,4.53,0,0,1-3.83-3.81,14.41,14.41,0,0,1-.38-3.8c0.93-15.82,6.81-29.46,19.75-38.87,12.18-8.86,21.59-8.06,32.9-.73a28.91,28.91,0,0,1,7.85,8.33,65.12,65.12,0,0,1,8.92,20.07c3,11.19,4,22.6,4.66,34.14a128.71,128.71,0,0,1-2.92,36.16c-7.55,33.42-25.06,61.36-48,86.17-15.29,16.54-32.93,30.31-52,42.21-23.88,14.89-49.26,25.76-77.5,29.18a88.23,88.23,0,0,1-46.85-7,53.59,53.59,0,0,1-17.94-12.64c-16.74-18.05-25.45-38.83-21.52-63.89,1.32-8.4-.07-10.81-7.8-14.1a34.47,34.47,0,0,0-6.36-2.13,125.91,125.91,0,0,0-20.85-3.06,168.52,168.52,0,0,0-36.31,2.37c-14.38,2.57-27.69,7.7-39.29,16.84-11.28,8.9-20.11,19.69-25.28,33.17-9.2,24-6.51,47.17,6,69.26a62.26,62.26,0,0,0,30,27.34c8.11,3.5,16.45,4.93,25.28,3,13.57-3,22.49-11.62,28.68-23.49a55.85,55.85,0,0,0,5.83-16.21c1.28-7.4,4.63-8,11-7.12,8.13,1.13,13.42,8.33,12.24,16.63a38.7,38.7,0,0,1-6.9,16.71c-6.08,8.77-13.3,16.37-22.35,22.15-1,.65-2.43,1.43-1.62,2.92a3.32,3.32,0,0,0,2.44,1c3.51,0.17,7,.22,10.55.22l292.76,0.14h47c2.56,0,5.12.06,7.68-.08,4.37-.24,5.18-1.31,4.19-5.29-0.23-.93-0.69-1.8-0.89-2.74-2-9.3-1.16-17.85,6.46-24.64a24.38,24.38,0,0,0,2.58-2.83,8.48,8.48,0,0,0,1.71-5.38,3.76,3.76,0,0,0-4.21-4c-3.44.44-6.1,2-7.15,5.48a53.91,53.91,0,0,1-5.28,12.31c-7.12,11.81-15.62,14.91-28.47,10.44a19,19,0,0,1-7.2-4.6c-0.88-.87-1.89-2-3.3-1.07-1.17.75-1.32,2.11-1.37,3.38-0.12,2.88-.05,5.76-0.29,8.63a21.45,21.45,0,0,1-1.14,5.58,4,4,0,0,1-6.39,1.3,9.48,9.48,0,0,1-3-5.83,91,91,0,0,1-.73-23c0.49-4.65,2.53-8.56,7-10.77a9.29,9.29,0,0,0,4.71-4.61,49,49,0,0,1,6.93-11.44c1.19-1.49.68-3.17-1.3-3.68a17.53,17.53,0,0,1-12-10.15,12.69,12.69,0,0,0-2.22-3.11c-2.57-2.77-5.68-4.07-9.5-3.13-2.17.53-4.33,1.14-6.52,1.62a11.53,11.53,0,0,1-6.6-.52c-2.76-1-4.08-3.79-2.46-6.1,2.38-3.4,5-6.64,7.7-9.79a15.32,15.32,0,0,1,9.78-5.67c6.81-.77,11.8-4.28,16.44-9,6.67-6.75,15.12-7.3,24.07-6.78,7.78,0.45,12,5.24,15.89,10.9,0.36,0.53.79,1,1.14,1.54,5,7.57,10.81,14.21,19.33,18.1,2.26,1,4.18,2.93,6.09,4.63,3.59,3.2,7.39,3.74,11.34.94,8.87-6.28,18.17-12.1,26.32-19.22a69.31,69.31,0,0,1,21.9-13.4c3.3-1.21,6.6-2.47,9.79-3.94C2400.76,997.71,2408.72,993.11,2416.09,985ZM526.55,853c0.53,3.71,2.45,4.61,3.61,6.07,2.37,3,4.94,5.89,7.1,9a45.57,45.57,0,0,1,7.11,16.66,42.66,42.66,0,0,0,5.9,15.12c5.71,8.65,13.2,11.39,23.16,8.5,2.46-.71,4.92-1.44,7.32-2.3,8.08-2.89,13.58-8.33,15.68-16.75a106,106,0,0,0,2.19-12.26,72.1,72.1,0,0,1,3-14.06c4.37-12.93,14.53-18.93,26.93-22,3.48-.86,7,0.18,10.36,1.33,14,4.83,19.76,25.32,10.4,37a6.19,6.19,0,0,1-10.46-.67,14.59,14.59,0,0,1-1.62-4.45c-0.39-1.87-.29-3.84-0.66-5.71-1.22-6.12-6.31-9.15-12.21-7.15a12.7,12.7,0,0,0-9,10.29,51,51,0,0,0-.45,6.69c-0.19,4.47-.22,9-0.55,13.42-0.63,8.57-3.55,16.27-9.59,22.5-8.44,8.7-18.34,15.06-30.51,16.89-7.26,1.09-14.64,1.36-22,1.93-2.55.2-5.12,0.07-7.66,0.28-2.3.19-3.39,2-2.38,4.1,2.75,5.81,5.2,11.67,5.82,18.17a5.84,5.84,0,0,0,1.76,3.33c4.85,4.6,9.42,10.46,16.21,11.33,7.42,1,14.44-2.14,20.36-6.93a35.77,35.77,0,0,0,5.44-5.4c2-2.48,3.6-5.26,5.42-7.89,5.32-7.71,12.78-11.62,22-11.39,13,0.32,21.56,15.16,15.59,26.55a3.94,3.94,0,0,1-5.7,1.68c-1.87-1.19-3.48-2.77-5.24-4.13a54.39,54.39,0,0,0-6.14-4.56c-3.7-2.11-6.78-1.47-9.3,1.85-1.54,2-2.54,4.46-4.06,6.5-8.44,11.28-18.78,19-33.79,18.51-5.74-.2-11.51.2-17.26,0.42a2,2,0,0,0-1.35,1.1,2,2,0,0,0,.26,1.72c3.19,3.68,7.32,6.16,11.45,8.6,6.64,3.92,13.79,6.75,21,9.47a53.4,53.4,0,0,1,17.74,11.14c8.45,7.88,18.42,13.79,27.74,20.54,3.87,2.8,7.79,2.66,11.35-.66a45.85,45.85,0,0,1,11.09-7.49,26.32,26.32,0,0,0,10-8.78c3.12-4.45,6.52-8.7,9.9-13,2-2.54,4.49-4.71,7.78-5.31,10.44-1.91,20.58-1.85,28.59,6.54a28.47,28.47,0,0,0,15.67,8.46c8.83,1.8,13.87,8.64,18,16,1.15,2-.17,4.59-2.35,5.51a9.6,9.6,0,0,1-5.64.57q-3.77-.71-7.51-1.6c-4.66-1.12-8.13.54-10.68,4.43-0.7,1.07-1.34,2.18-2,3.29-2.47,4.4-5.91,7.48-11,8.47-0.81.16-1.51,0.92-2.82,1.76a88.5,88.5,0,0,1,8.66,13.83,10.3,10.3,0,0,0,4,4c6.66,3.56,8,9.81,8.05,16.32,0.06,5.73-.84,11.47-1.43,17.2a8.93,8.93,0,0,1-2.84,5.93,4.16,4.16,0,0,1-3.46,1.31,3.6,3.6,0,0,1-3.15-3.15c-0.38-2.84-.33-5.73-0.57-8.59-0.28-3.33,0-6.86-3.54-10.93-1.25,1.95-1.85,3.6-3,4.59-11,9.28-25.26,7.4-33.32-4.31a41.34,41.34,0,0,1-6.46-13.83c-0.94-3.93-3.87-5.67-7.68-6.16a3.73,3.73,0,0,0-4.24,4,9.11,9.11,0,0,0,2.31,6.14c1.07,1.19,2.24,2.29,3.38,3.4q9.48,9.24,5.73,21.94c-0.54,1.84-1.3,3.61-1.84,5.45-0.65,2.24.37,3.72,2.82,3.87,3.19,0.19,6.39.21,9.59,0.21q156.94,0,313.88,0,13.44,0,26.88-.22c1.43,0,3.3.48,3.94-1.67-1.1-2.16-3.35-2.92-5.07-4.29-8.3-6.62-15.91-13.9-21.39-23.12-3.16-5.31-5.29-11-5-17.27,0.36-7.16,4.6-12,11.69-13.14,7.93-1.24,10.34.44,11.72,7.46,0.25,1.26.48,2.52,0.83,3.75,2.1,7.47,5.19,14.54,10.08,20.55,10.35,12.71,23.67,18.11,40,14.86a50.41,50.41,0,0,0,28.5-16.75c17.76-20.46,25.75-44.16,19.57-71.15-6-26.09-22.22-44.07-46.37-55.18-10.33-4.75-21.41-6.57-32.51-7.93A130.21,130.21,0,0,0,982.61,956a27.32,27.32,0,0,0-9.68,4c-3.13,2.26-4.58,5-3.79,9.06,0.91,4.69,2,9.51,1.79,14.23a76.6,76.6,0,0,1-9.07,34c-4.91,9-10.82,17.42-19.33,23.56-16.85,12.16-35.82,16.6-56.28,14.78-21-1.87-40.58-8.5-59.39-17.85a253.93,253.93,0,0,1-77.44-58.92c-19.37-21.76-34.24-46.23-42-74.62a142.37,142.37,0,0,1,1.41-80.43c2.63-8.61,6.63-16.66,13.45-22.93,7.45-6.85,16-9,25.74-6a33.87,33.87,0,0,1,16.44,11.15c7.3,8.93,11.2,19.29,12.72,30.62a18.06,18.06,0,0,1-.09,4.77,5.31,5.31,0,0,1-5,5c-2.84.4-5.75,0.35-8.6,0.65-8.37.9-16.38,2.91-23.31,8-8.81,6.5-11.26,16.48-6.53,26.41a28.64,28.64,0,0,0,7.63,9.75c10.6,8.85,23.11,12.45,36.56,12A101.75,101.75,0,0,0,809.77,897c11.09-4.13,22.24-8.1,33.34-12.2,13.52-5,27.1-9.69,41.37-12.17a74.4,74.4,0,0,1,35.06,2.27c27.81,8.47,41.52,32.68,44.08,55.16,0.39,3.4.05,6.88,0.05,11,9-2.71,17.46-5.36,26-7.79a99.45,99.45,0,0,1,26.57-3.45,122.71,122.71,0,0,1,26.66,2.77c8.65,1.86,17,4.87,27.05,8.08-3.28-6-6.71-9.65-9.6-13.69-20.68-29-36.22-60.28-43.78-95.25-8-36.94-13.84-74.18-14.91-112.05-0.05-1.92-.2-3.83-0.37-5.74-0.47-5.22-2.34-8.91-8.28-10a26.91,26.91,0,0,1-16.33-9.33c-3.23-3.95-7.93-4.76-13.09-5.46,2.69,5.87,4.13,7.64,9.13,11.18,2.87,2,5.85,3.92,8.7,6,4.8,3.45,6.73,8.4,7,14.09,0.34,6.39-7.16,25.35-11.73,29.95-2.64,2.65-6,2.49-8.2-.61a40.38,40.38,0,0,1-3.32-5.82A23.37,23.37,0,0,0,952,731.92c-1.2-.45-2.38-0.95-3.54-1.49-6.55-3.06-9.58-8.22-8.76-15.36,0.29-2.52,1.14-5,1.65-7.49a56.72,56.72,0,0,0,1.11-6.6,11,11,0,0,0-1.84-7.29c-2.19-3.22-5.37-3.56-8-.76-3.48,3.72-5.18,7.77-3.91,13.1a43.08,43.08,0,0,1,.87,11.43c-0.42,11.4-3.56,15.33-14.85,17.66-5.52,1.14-9.64,3.08-11.18,8.91a12.45,12.45,0,0,1-2.26,4.18,6,6,0,0,1-8.54,1c-3-2.26-4.85-5.39-4.41-9.09,0.85-7.18-.46-13.87-2.67-20.69-3.2-9.9,2.87-24.82,15.19-27a14.56,14.56,0,0,0,4.51-1.6,29,29,0,0,0,5.45-3.8c1.38-1.27,2.6-3,1.6-5.08-0.8-1.68-2.5-1.88-4.09-1.95-6.78-.3-13.32,1.46-19.93,2.53a9.13,9.13,0,0,0-2.62,1.16c-3.43,1.81-5.35,4.57-4.87,8.56a58.09,58.09,0,0,0,1.45,8.5c2.4,8.72,1.15,17.06-1.87,25.39a17.63,17.63,0,0,1-9.16,10.54c-5.75,2.78-11.28,6-17.82,6.83a11.41,11.41,0,0,0-9,6.41c-1.74,3.37-.85,6.36,2.61,7.93,2.61,1.19,5.43,1.94,8,3.14,4.22,2,4.55,5.61.85,8.06-11.53,7.64-28.65.23-30.58-13.41-1.4-10,1.82-18.3,10-24.41,2.31-1.71,4.85-3.11,7.19-4.78a25.15,25.15,0,0,0,10.17-14.67c1.29-5.13,0-9.74-4-13-5.92-4.76-13-6.62-20.55-6.9-2.13-.08-3.55,1.28-4.1,3.37-0.49,1.86-.9,3.73-1.36,5.59a45.73,45.73,0,0,1-9.06,17.83,21.86,21.86,0,0,1-4.8,4.61c-4.37,2.89-9.44.11-9.45-5.11a51.39,51.39,0,0,1,.63-5.72c1.32-11.93-3.49-21.21-12.63-28.43-5.1-4-7.46-5.5-12.11,1.75-4.93,7.67-12.71,11.45-21.52,13.12-3.55.67-7,.48-10.17-1.56a5.77,5.77,0,0,1-.89-9.09,31.56,31.56,0,0,1,4.71-3.29c7.28-4.46,10-11.42,10.35-19.46,0.28-7.16-3.29-9.35-8.68-5.7-2.66,1.8-5.64,3-9.06,2.16-4-1-5.81-4.58-3.69-8.06,1.66-2.72,3.91-5.07,5.59-7.77,3.69-5.91,2.79-12.48-2.26-17.47a2.46,2.46,0,0,0-3.47-.15,7.09,7.09,0,0,0-1.35,1.34c-6.51,8.94-13.87,16.75-25.09,19.8-1.79.49-1.84,2.39-1,4,2.09,4.13,5,7.35,9.54,8.94a35.78,35.78,0,0,1,6.89,3.22c1.54,0.95,1.55,2.8.76,4.29a8.17,8.17,0,0,1-2.52,2.81c-7.74,5.27-15.78,6.72-24.29,1.73a72.69,72.69,0,0,0-7.58-4c-1-.42-1.76.59-1.83,1.67a7,7,0,0,0,2.17,5.15,31.66,31.66,0,0,0,10.82,7.79c7.08,3.26,12.94,8.15,18.55,13.46a25.82,25.82,0,0,1,6.85,11.34c1.79,5.61,1.36,11.39,1.81,17.12,0.56,7.23-1.14,13.93-4,20.49-2.12,4.87-5.1,8.76-9.95,11.22-4,2-7.83,4.35-11.71,6.59a15.43,15.43,0,0,0-5.23,4.12,3.4,3.4,0,0,0,2.05,5.25c4,0.82,7.55-.5,10.92-2.57,3-1.84,6-3.74,9.07-5.34a3.28,3.28,0,0,1,4.67,3.1,13.92,13.92,0,0,1-5.51,11.7,51.93,51.93,0,0,1-19.48,9.93c-10.38,2.75-23.18-2-29.18-11.82-5.89-9.63-7.05-20.64,2.88-29.54a45.9,45.9,0,0,1,11-7.54c4-1.91,8.11-3.85,11.55-6.79,5.4-4.63,6.05-9.57,1.52-15-3.9-4.68-8.68-7.59-15.18-5.06a35.05,35.05,0,0,1-5.56,1.48c-7.12,1.49-14.08,1.44-20.22-3.08-4.43-3.26-9-2.75-13.65-1-5.2,2-9.43,5.37-13.3,9.24-6.57,6.59-13.48,12.74-21.43,17.66a29.53,29.53,0,0,0-4.51,3.56,53.93,53.93,0,0,1-17.11,10.43c-19.72,7.87-40.36,12.11-61.14,16A70.12,70.12,0,0,1,487,766.45a54.76,54.76,0,0,0-9.3-2.22c-8.78-1.75-17.77-2-26.52-4.16-10.72-2.64-21.52-2.78-32.14,1.06-2.7,1-5.55,1.51-8.34,2.22-15.54,3.94-26.68,13.37-33.85,27.52-4.42,8.72-5,17.77-1,26.87,5.09,11.53,13.13,19.15,26.08,21.69,6.93,1.36,12.57.52,17.89-3.84a33.75,33.75,0,0,1,3.14-2.21c8.9-5.75,10.27-14.2,8.1-23.61-1.49-6.48-6-10.45-12.39-12.07-4.54-1.15-7.57,1.84-6.59,6.45,0.59,2.81,1.72,5.51,2.24,8.33,1.17,6.34-6,13.51-12.36,12.59-11.48-1.65-18.11-16.52-11.62-26.07,9-13.21,31.39-16.19,43.69-5.75a15.67,15.67,0,0,1,3.16,3.58c8.83,14.2,9.55,28.92-1.19,42.88-1.5,2-4.15,3-4.58,5.85,2.14,1.63,4.44.9,6.48,0.37,10.82-2.8,21.84-5,32.07-9.77a49.85,49.85,0,0,1,19.42-4.82c2.88-.1,5.82.13,8.62-0.39,11-2,20.84,1.2,30.34,6.36A128.6,128.6,0,0,0,540.43,843a24.51,24.51,0,0,0,15.09,1.12c6.64-1.52,9.53-6.42,7.75-12.94-1.18-4.32-2.71-8.54-4-12.82-2.56-8.33,0-15,6.48-20.57,6.72-5.8,14.44-6.31,22.57-4.39a12.29,12.29,0,0,1,6.93,4.9c1.4,1.88,2.3,3.94,1.18,6.23a5.28,5.28,0,0,1-4.72,2.8c-1.91.14-3.85,0-5.74,0.21-8.53,1.08-10.51,3.64-9.3,12,0.55,3.8,1.15,7.6,2,11.34,1.56,7.12-.11,13.63-4.88,18.77-5.23,5.65-11.43,10.33-19.72,10.62a42.86,42.86,0,0,1-20.53-4C531.52,855.45,529.55,854.47,526.55,853Zm571.3-826.09c-12.74-.24-23.82.05-34.55,4.32-14.8,5.89-24.22,16.21-28.08,31.64-3.09,12.32-2.64,24.77-1.08,37.19a175.36,175.36,0,0,0,10.57,40.79c15.49,40.54,21.66,82.78,22.75,125.88,0.4,16,0,31.94-1.08,47.94-1.17,17.87-2.39,35.71-4.12,53.54-2.7,28-6.41,55.91-10.37,83.76-5.71,40.21-12,80.33-17.78,120.52-2,13.6-3.09,27.32-4.47,41-0.55,5.46-.55,10.62,4.52,14.77,3.22,2.64,2.46,6-1.4,7.41-3.68,1.34-5,3.5-5,7.09-0.08,8.32-.25,16.63-0.37,25-0.06,4.18,0,8.32,2.35,12,0.88,1.37,1.45,3.17.38,4.52-3.54,4.5-2.54,9.72-2.66,14.77-0.31,12.5,1,24.92,2,37.35,0.76,9.56,1.4,19.14,2.67,28.64,2.43,18.07,5.55,36,9,53.92,5.72,29.3,17.11,56.19,33.35,81.12,19,29.2,42.94,54,69.09,76.79,24.63,21.46,50.82,40.93,77.87,59.2,19.88,13.43,40,26.48,60.16,39.52,18.53,12,37.28,23.64,55.81,35.64,29.27,19,58.52,37.94,86.94,58.16,18.25,13,36.27,26.27,53.61,40.46,4.77,3.9,5.79,3.78,10.81-.14,7.81-6.11,15.54-12.32,23.42-18.34,27.7-21.21,56.53-40.83,85.8-59.8q52.35-33.92,104.84-67.63c40.16-25.74,79.51-52.58,115.83-83.64,21-17.92,40.55-37.14,57.78-58.7C1901.61,890,1919,854.84,1926,814.82c3.35-19.22,5.73-38.54,7.6-58,1.78-18.5.93-37.09,3-55.55,0.65-5.95,1.2-12.18-2.34-17.71,1.36-5.85,3.21-11.58,2.64-17.78-0.7-7.63-1-15.31-1.38-23a8.56,8.56,0,0,0-3.89-7.17c-3.61-2.58-3.9-4.85-.68-7.85,3.77-3.52,4.41-7.55,4.07-12.15-0.53-7-1.09-14-1.65-21-0.84-10.52-1.32-21.08-2.6-31.54-2-16.5-4.53-32.94-6.9-49.39-5-34.5-10.27-68.95-14.79-103.5-1.91-14.56-4.29-29.1-4.94-43.84-0.39-8.93-1.55-17.83-2.17-26.76-1.08-15.62-2.45-31.25-2.91-46.89a547.85,547.85,0,0,1,3.26-79.49c3.42-29.35,11.24-57,28.83-81.36a81.23,81.23,0,0,0,14.54-35.18c2.18-13.87,1.48-27.45-4.55-40.38a47.53,47.53,0,0,0-26.51-25c-13.93-5.52-28.2-5.4-42.49-2.61-9.71,1.9-19.16,5.09-28.81,7.37-34.59,8.16-69.68,13.53-104.9,18.06-13.63,1.76-27.31,3.18-41,4.6-16.21,1.69-32.43,3.37-48.67,4.78-12.1,1.05-24.24,1.77-36.37,2.45-20.42,1.15-40.85,2.85-61.29,3.1-41.89.51-83.79,1.5-125.68-1.17-14-.89-28.07-1.9-42.12-2.63-8.62-.45-17.22-1.27-25.8-2.16-14.94-1.55-29.88-3.17-44.8-5-22.53-2.72-45.1-5.28-67.56-8.54-35.76-5.18-71.45-10.86-107-17.62C1124.36,29.29,1110.6,25.8,1097.85,26.91ZM1296.6,1118.2c0-2-1.82-2.51-3.07-3.31-16.67-10.73-33.32-21.49-50.08-32.07-20.83-13.15-41.08-27.16-61.09-41.5-15.6-11.17-30.94-22.7-45.53-35.18-1.76-1.51-3.46-3.66-6.9-3,0.83,3.38,1.6,6.44,2.32,9.5,8.18,34.5-.91,64.4-24.06,90.61-2.48,2.8-6.23,4.56-7.26,8.59,3.58,3.31,7.86,1.54,11.73,1.28,13.71-.91,27.37-2.38,41.08-3.39,21.37-1.59,42.59-4.43,63.82-7.16,10.46-1.35,20.88-3,31.28-4.78a12.19,12.19,0,0,1,11.32,3.35c9.05,8.49,20,13.67,31.85,17C1293.5,1118.49,1295,1119.31,1296.6,1118.2Zm549.59,7.85c-7.9-.45-15.8-1.61-23.75-2.31-18.81-1.67-37.48-4.4-56.12-7.3-14.53-2.27-29-5.17-43.45-7.77-3.82-.69-7.6-1.1-11.09,1.33-8.69,6-18.1,10.85-27.37,15.89-2.76,1.5-2.85,3.53-.21,5,10.36,5.72,20.8,11.3,31.15,17a8.88,8.88,0,0,0,8.24.24c14.93-6.07,30.69-8.94,46.41-11.87C1795.16,1131.56,1820.61,1129,1846.19,1126Zm-734.31-.12c19.33,2.3,36.44,4.16,53.5,6.42,24.42,3.22,48.68,7.37,71.91,16a9.12,9.12,0,0,0,8.21-.62c10.06-5.59,20.18-11.05,30.27-16.57a15.66,15.66,0,0,0,1.61-1,2,2,0,0,0,0-3.25c-1.91-1.15-3.88-2.2-5.86-3.23-6.53-3.38-13.41-6.27-19.08-11-5.21-4.33-10.52-4.94-16.95-3.59-25.66,5.38-51.61,9-77.58,12.56C1143.33,1123.57,1128.75,1125,1111.88,1125.92Zm-522.81-9.11c10.37,1.1,18.9.76,27.42,0.43a3.33,3.33,0,0,0,3.5-3.68c-0.05-3.18-.12-6.37-0.31-9.55-0.37-6.23,1.74-11.23,7-14.76,1.06-.71,2.06-1.5,3.09-2.25,2.57-1.85,3.33-4.49,3.42-7.51,0.1-3.9-1.79-5.45-5.27-3.93a164.64,164.64,0,0,0-20.15,10.92c-3,1.82-4.83,4.22-4.66,7.75,0.41,8.19-3.73,13.89-9.83,18.61C592.3,1113.62,591.46,1114.56,589.06,1116.81Zm1787.58,0.37a24.49,24.49,0,0,0-2.65-2.8c-7.84-4.8-12.84-11.23-12.54-20.95,0.1-3.15-1.89-5.25-4.39-6.93a145,145,0,0,0-20.12-10.84,8.53,8.53,0,0,0-1.83-.51,3,3,0,0,0-3.46,2.51c-0.45,3.3-.12,6.38,2.7,8.65,1.48,1.2,3,2.34,4.53,3.49,5.31,4,7.13,9.55,6.7,16-0.17,2.53-.71,5-0.91,7.57s0.82,3.81,3.1,3.92C2356.91,1117.66,2366.05,1117.7,2376.64,1117.18ZM611.28,225.65c-0.12-2.94-2.8-4.47-4.31-3.3-4.81,3.73-9,8.08-11.5,13.72-1.25,2.78.42,5.21,3.39,5.25a7.73,7.73,0,0,0,5.38-1.55C608.87,235.8,610.47,230.39,611.28,225.65Zm1745.56-3.26c-1-.18-2.36,1.15-2.48,2.38-0.59,6.19,1.83,11.12,6.48,15a7.61,7.61,0,0,0,3.45,1.4c1.92,0.34,3.83.07,5.07-1.71a4,4,0,0,0-.14-4.49,47.27,47.27,0,0,0-10.62-12A5.12,5.12,0,0,0,2356.84,222.39ZM680.1,1052.93c-10.64-8.44-18.56-8.28-25.64.55C665.48,1056.61,671.79,1056.47,680.1,1052.93Zm1630.22-.15c-9.68-7.47-13.86-7.91-23-2.29a3.11,3.11,0,0,0-1.51,2.1,2.88,2.88,0,0,0,1.77,1.83C2293.86,1056.64,2303.81,1055.87,2310.32,1052.78Zm-1343-386.1c4.11,0.24,7.82-1.17,11.43-2.88,0.81-.38,1.62-1,1-2.05a2,2,0,0,0-1.64-.53A20.32,20.32,0,0,0,967.3,666.68Zm1031.21,0.94c-7.1-6-7.86-6.3-14.3-5.34C1988.43,665.36,1992.72,666.66,1998.51,667.62ZM572.87,1116.21a2.62,2.62,0,0,0-3-1.44,1.63,1.63,0,0,0-1,1.15c0.37,1.52,1.7,1.45,2.87,1.31A3.15,3.15,0,0,0,572.87,1116.21Zm1822.34-1.45c-1,.09-1.89.47-2,1.57a2.09,2.09,0,0,0,1.51.67,3.91,3.91,0,0,0,1.45-.94Z"/><path d="M2964.48,1534.08q-12.17,32.33-24.35,64.66c-1.81,4.79-3.69,9.55-5.54,14.32a8.12,8.12,0,0,1-8.05,5.66c-2.56,0-5.12.12-7.68,0.12q-99.84,0-199.68,0a87.7,87.7,0,0,1-9.57-.45,4.77,4.77,0,0,1-4.35-4.42,23.37,23.37,0,0,1-.27-2.86c-0.2-7.1,1.51-9,8.81-9.53,2.55-.19,5.12-0.12,7.67-0.27,9.77-.57,15.85-6.14,19.41-14.78a30.5,30.5,0,0,0,2.18-11.26c0-3.2.08-6.4,0.08-9.6q0-115.2,0-230.4c0-3.52,0-7-.16-10.56-0.75-12.82-10.35-23.26-23.56-22.94a62.52,62.52,0,0,1-9.56-.52c-3-.38-4.38-2.12-4.72-5.18a28.89,28.89,0,0,1-.12-4.79c0.27-4.68,1.73-6.31,6.39-6.72,3.18-.27,6.39-0.2,9.59-0.2,45.76,0,91.52-.27,137.28.11a218.46,218.46,0,0,0,63.43-8.79c10.45-3.05,10.76-.6,10.74,7.62,0,17.92,0,35.84,0,53.76,0,1,0,1.92,0,2.88-0.37,6.21-2.13,7.9-8.22,7.91s-7.76-1.57-8.14-8c-0.23-3.83-.13-7.66-1.29-11.4-3-9.56-10.21-15.63-20.19-16.56-2.54-.24-5.12-0.17-7.67-0.17q-42.72,0-85.44,0c-12.95,0-13,0-13,12.51q0,49.92,0,99.84c0,11.66.33,12,11.7,12,23,0.05,46.08,0,69.12,0,1.6,0,3.2,0,4.8-.08,10.91-.59,16.12-5.68,17.1-16.7,0.23-2.55.25-5.11,0.53-7.65a4.3,4.3,0,0,1,2.54-3.79,16.72,16.72,0,0,1,11.26-.19,4.28,4.28,0,0,1,2.8,3.62,42.15,42.15,0,0,1,.54,6.68c0,21.76,0,43.52,0,65.28,0,9.7-2.08,11.42-12.36,10.35-3-.32-4.56-1.87-4.94-5-0.32-2.53-.22-5.11-0.45-7.66-0.93-10.49-5.66-15.52-16.12-17a55.72,55.72,0,0,0-7.66-.38q-33.12,0-66.24,0c-10.88,0-11.36.48-11.38,11.4q-0.08,51.36,0,102.72c0,10.84.5,11.27,11.47,11.31,16.32,0.06,32.66.45,49-.13,13.07-.47,26.27-0.2,39.13-3.31,19.83-4.79,35.82-15.12,46.43-32.9,3.44-5.76,6.88-11.57,9.72-17.64,2.39-5.1,6-7.16,11.38-6.89,2.55,0.13,5.12.08,7.68,0.11v5.76Z"/><path d="M1470.72,1962.24a14.56,14.56,0,0,0-2.21-1.83c-9.52-5.16-15.39-13.15-18.76-23.32-1.59-4.78-2.83-5.31-7.77-5.34-5.91,0-11.37,1.78-16.6,4.27-9.25,4.39-18.56,8.71-27,14.6-4,2.83-7.8,3.19-12.54,1.4-15.35-5.82-31.57-8.13-47.7-10.51-13.28-2-26.64-3.46-40-5-8.89-1-17.82-1.79-26.75-2.43-12.76-.91-25.56-1.3-38.29-2.43-33.54-3-67.15-1.5-100.72-1.54q-265.43-.26-530.87-0.08c-3.84,0-7.69.08-11.52-.13a15.13,15.13,0,0,1-5.52-1.29,4.35,4.35,0,0,1-2.43-4.78,4.15,4.15,0,0,1,2.84-3.53,17.15,17.15,0,0,1,4.67-.86c3.51-.14,7-0.1,10.56-0.1q293.27,0,586.55-.08c23.34,0,46.69-.78,70-1.78,19.48-.84,39-2.08,58.37-4,24.18-2.33,48.4-4.48,72.32-9,1.57-.3,3.21-0.3,4.74-0.7a10.15,10.15,0,0,1,10.49,2.85c8.56,8.41,19.5,12,30.88,14.39,3.75,0.8,7.57,1.25,11.38,1.71a4.28,4.28,0,0,0,4.65-2.64c1.09-2.32,2.09-4.67,3.21-7,6.43-13.15,17.47-19.74,31.61-19.59,13.74,0.14,24.4,6.92,30.82,19.48,1.16,2.27,1.93,4.74,3,7a4.4,4.4,0,0,0,4.66,2.7c15.08-1.8,29.92-4.62,41.6-15.3,4.07-3.72,8-4.41,13.07-3.44,24.22,4.6,48.75,6.93,73.24,9.41,13,1.32,26.21,1.28,39.23,2.63,23.27,2.41,46.68,1.09,70,3.05,4.45,0.38,9,.2,13.43.21h594.23c3.84,0,7.68,0,11.51.17a12,12,0,0,1,4.57,1.21,4.5,4.5,0,0,1,0,7.87,12,12,0,0,1-4.56,1.25c-3.83.21-7.67,0.18-11.51,0.18q-300,0-600,0c-16.66,0-33.2,1.73-49.78,2.88-1.91.13-3.82,0.42-5.74,0.47-17.61.44-35.1,2.32-52.57,4.37-16.83,2-33.69,3.76-50.34,7.11-9.42,1.9-18.87,3.67-27.77,7.38a11.2,11.2,0,0,1-11.7-1.35c-8.39-5.94-17.56-10.52-26.85-14.84-5.54-2.57-11.29-4.45-17.55-4.34-3.63.06-6.13,1.45-7.26,5-0.39,1.22-.77,2.44-1.23,3.64-2.8,7.37-7.11,13.55-13.91,17.83-1.88,1.18-3.57,2.68-5.34,4h-26.88Zm-167.8-37.6c3.9,2.13,6.78,2.2,9.61,2.5,24.18,2.58,48.26,5.68,71.25,14.21a8,8,0,0,0,7.32-.49c6.63-3.86,13.31-7.62,19.93-11.5,2.13-1.25,2.27-3.28.24-4.54-6.24-3.88-12.48-7.75-18.88-11.35a10.87,10.87,0,0,0-5.56-.93,54.17,54.17,0,0,0-7.56,1.18C1354.47,1918.4,1329.6,1922.65,1302.92,1924.64Zm360.55-.06a524.61,524.61,0,0,1-71.37-10.42c-9.82-2.1-18-1.48-25.89,4.92-3.62,2.93-8.14,4.73-12.23,7,0.57,1.09.71,1.87,1.15,2.13,6.84,4.08,13.76,8,20.58,12.16,3,1.83,5.9,1.72,9.11.56,22.37-8.12,45.77-11.11,69.23-13.78C1656.86,1926.86,1659.75,1926.9,1663.47,1924.58Zm-200.12-3.85c-0.16,11.47,9.29,21.46,20.22,21.38s21-10,21.09-20.84a20.34,20.34,0,0,0-19.92-20.4C1473,1900.56,1463.51,1909.4,1463.35,1920.73Z"/><path d="M2013.24,1616c1.95,2.32,4.3,2.54,6.36,3.25q54,18.67,107,39.76c9.21,3.66,18.44,7.29,27.71,10.8a303.34,303.34,0,0,0,63.89,16.79c38.9,5.64,77.16,3.1,114.56-9.62,14.54-4.95,29-10.11,43.06-16.28,2-.9,4.1-1.81,6.2-2.57,4.44-1.61,6.32-1.07,9.2,2.46,2.37,2.9,2.4,5.12-.32,7.52-30.27,26.7-62.7,49.64-102.81,59.3a193.55,193.55,0,0,1-36,4.95c-39.57,1.94-76.76-7.25-112.7-22.95C2114.72,1698.69,2091,1686,2067,1674c-26.33-13.16-52.88-25.82-80.43-36.25-7.77-2.94-15.67-5.57-23.57-8.13a81.27,81.27,0,0,0-21.7-3.44c-35.81-1.56-69.58-10.71-99.94-30-43.37-27.58-69.79-66.78-77.64-117.9-5.32-34.64-1.43-68.19,12.81-100.36a166.17,166.17,0,0,1,24.38-38.89c23.64-28.5,53.77-46.77,89.16-56.87a203.08,203.08,0,0,1,70.26-7.25c42.75,3,81,17.63,113.59,45.9,21.69,18.84,37,42.19,46.87,69.14,5,13.58,7.62,27.62,9.24,42a174.86,174.86,0,0,1-9.08,78.37,161.1,161.1,0,0,1-31.31,53.47c-19.65,22.36-43.55,38.33-71,49.27C2016.86,1613.72,2014.85,1614,2013.24,1616Zm65.94-166.51A159,159,0,0,0,2064,1377.9c-13-27.51-32.43-49-59.9-62.5-29.93-14.7-61.29-17.3-93.43-8.7a120.29,120.29,0,0,0-62.14,39.6,146.21,146.21,0,0,0-31.7,66.94,186.11,186.11,0,0,0-2.63,56.27c2.55,23.65,9.25,45.67,21.34,66.07,6.22,10.5,13.36,20.4,22.41,28.61,32,29.07,69.83,39.39,112,32,40.28-7.09,70-29.82,89.84-65.49C2073.75,1505.47,2079.65,1478.24,2079.17,1449.52Z"/><path d="M686.07,1504.56c2.88-1.7,3-4.15,3.6-6.2q12.21-40.41,24.3-80.87,11.19-37.21,22.46-74.41c2.12-7,4.18-14.11,6.24-21.17a43.38,43.38,0,0,0,1.15-4.66c1.82-10.42-2.6-16.77-12.9-18.52-1.26-.21-2.56-0.18-3.82-0.39-4.12-.7-5.29-2.07-5.57-6.4-0.46-7.21,1.16-9,8.54-9.47,2.23-.13,4.48-0.09,6.72-0.1l79.67-.34c2.24,0,4.48-.07,6.72,0,7.23,0.33,10.31,5.82,7.13,12.64a4.76,4.76,0,0,1-3.65,2.79,33.7,33.7,0,0,1-5.71.56c-16.6,0-27.55,8.87-35.2,22.58a84.36,84.36,0,0,0-5.74,14.2c-10.84,32.13-21.54,64.31-32.36,96.45-9.59,28.5-19.33,56.94-28.88,85.45q-7.62,22.74-14.8,45.62a260.28,260.28,0,0,0-10.28,50.7c-0.82,7.57-3.42,10.29-12.33,8.55-2.77-.54-4.45-2.46-5.5-4.9-1.76-4.12-3.42-8.28-5.06-12.44q-19.28-49.13-38.52-98.27c-14.56-37.24-29-74.53-43.69-111.71-1.78-4.49-2.13-9.95-6.91-12.91-3.42,3.65-4,8.6-5.63,13-6.71,18-13.12,36.07-19.56,54.15-12.45,35-25.08,69.85-37.16,104.93-6.36,18.46-11.14,37.39-12.37,57-0.08,1.28-.16,2.56-0.35,3.82-1.07,7.07-8.16,10.4-14.25,6.69-2-1.25-2.81-3.39-3.63-5.49-4.17-10.73-8.41-21.44-12.54-32.19q-23.44-60.9-46.83-121.82-22-57.33-44-114.68-3.61-9.41-7.22-18.81c-0.69-1.79-1.4-3.57-2.18-5.33-5.91-13.35-15.94-21.32-30.52-23.28-3.48-.47-7-0.67-10.48-1.17-3.12-.45-4.44-1.89-4.8-5.06a24.78,24.78,0,0,1-.08-4.78c0.29-3.52,1.8-5.19,5.35-5.62a64.28,64.28,0,0,1,7.66-.31q47.51,0,95,0a66.57,66.57,0,0,1,8.61.44c2.95,0.39,4.46,2.14,4.69,5.17a29.57,29.57,0,0,1-.14,5.73,4.71,4.71,0,0,1-4.33,4.41c-2.53.38-5.12,0.48-7.58,1.1-7.49,1.86-10.71,6-11,13.64a31.86,31.86,0,0,0,1.95,11.28q4.59,13.64,9.06,27.33,22.63,69.33,45.23,138.68,4.17,12.77,8.48,25.49c0.39,1.15.81,2.66,2.42,2.5,1.43-.15,1.88-1.58,2.3-2.74q6.24-17.64,12.4-35.31,28.13-81.15,56.22-162.31c3.77-10.88,7.6-21.74,11.41-32.61,0.53-1.51,1-3,1.62-4.52,2.33-5.55,7.7-7.73,13.33-5.44a6.43,6.43,0,0,1,3.36,3.26c1,2,1.91,4,2.73,6.13q30,76.36,60,152.74,12.63,32.15,25.32,64.28A20.81,20.81,0,0,0,686.07,1504.56Z"/><path d="M2519,1413.29q0-44.16,0-88.31a73.79,73.79,0,0,0-.3-9.58c-1-7.69-5.33-12.81-12.73-15.28-4.32-1.44-8.81-1.42-13.27-1.74-5.13-.37-6.55-2.06-6.68-7.33a22.25,22.25,0,0,1,.12-2.87c0.33-3.08,1.71-4.83,4.61-5.27a53.71,53.71,0,0,1,7.65-.48q39.84-.23,79.67-0.38c1.28,0,2.56,0,3.84,0,2.84,0.17,6-.2,7.4,3.14a12.06,12.06,0,0,1-.26,10.22,4.58,4.58,0,0,1-4,2.3c-3.19.23-6.39,0.23-9.58,0.44-10.64.69-17.17,6.46-18.76,17a84,84,0,0,0-.59,12.44q-0.05,82.55,0,165.11c0,11.2-.14,22.37-2.42,33.44-4.71,22.89-15,42.86-31.52,59.31-15.79,15.7-35.09,25.62-56.5,31.2-35.5,9.25-71.1,8.85-106.09-2-37.9-11.75-64.19-36.32-76.41-74.62a136.08,136.08,0,0,1-6.29-41.6q0.06-85.91,0-171.83c0-3.2-.16-6.4-0.07-9.6,0.23-8.92-9.37-18.9-18.41-18.86a72.54,72.54,0,0,1-9.57-.57c-3-.39-4.43-2.12-4.71-5.15a25.87,25.87,0,0,1,0-4.79c0.34-3.55,1.81-5,5.5-5.44a62.13,62.13,0,0,1,6.71-.24q43.68,0,87.35,0a63.7,63.7,0,0,1,7.66.35c3,0.37,4.42,2,4.76,5.07a25.47,25.47,0,0,1,.05,4.78c-0.28,3.48-1.81,5.13-5.42,5.55a85.74,85.74,0,0,1-8.62.4c-8.77.13-19.07,7.41-18.72,19.19,0,1.6,0,3.2,0,4.8q0,85,0,169.91c0,15.49,2,30.59,7.16,45.26a91.12,91.12,0,0,0,29.42,41.82c11,8.88,23.89,13.54,37.64,15.79a127.64,127.64,0,0,0,56-3.44c31.87-9.05,52.27-29.73,61.42-61.49a107.74,107.74,0,0,0,4-30.34c-0.1-28.8,0-57.6,0-86.39h0Z"/><path d="M1033.65,1618.84q-49.42,0-98.84,0c-3.2,0-6.4,0-9.59-.23a7.23,7.23,0,0,1-3.59-1.12c-3.11-2.22-2.4-5.66-2.37-8.79,0-2.67.66-5.21,3.59-6.13a27.47,27.47,0,0,1,5.63-1c2.23-.21,4.48-0.08,6.71-0.24,11.08-.82,19-8.12,20.61-19.21a59.42,59.42,0,0,0,.43-8.61q0-122.83,0-245.65c0-1.6-.11-3.2-0.07-4.8,0.29-11.63-9.5-20.17-19.7-21-3.5-.27-7-0.21-10.53-0.54-5.2-.5-6.55-2.08-6.74-7.39a28.16,28.16,0,0,1,.11-3.83c0.37-3.6,1.75-5.21,5.36-5.6a89.56,89.56,0,0,1,9.58-.34c46.38,0,92.76-.26,139.14.1,21.33,0.16,42-3.14,62.48-8.66,1.85-.5,3.67-1.14,5.55-1.5,3.18-.61,4.73.63,5.07,4,0.19,1.9.2,3.83,0.2,5.75q0,25.91,0,51.82c0,1,0,1.92,0,2.88-0.31,7.73-2.28,9.51-10,9-5.08-.31-6.86-1.88-7.39-6.93-0.3-2.86-.32-5.75-0.33-8.62,0-10.28-7.4-16.75-14.82-19.06a31.57,31.57,0,0,0-9.44-1.43q-46.54,0-93.08,0a30,30,0,0,0-4.77.35,4.23,4.23,0,0,0-3.77,3.77,50.81,50.81,0,0,0-.39,6.69q0,51.34,0,102.67c0,10.17.69,10.82,11,10.85,23.35,0.07,46.7,0,70,0,1.6,0,3.2,0,4.79-.13,10-.79,15.59-6.21,16.74-16.38,0.29-2.54.21-5.12,0.54-7.65,0.4-3,1.94-4.37,5-4.83,0.32,0,.63-0.07,1-0.1,8.84-.86,11.17.92,11.23,9.67,0.14,22.39,0,44.78,0,67.17a29.71,29.71,0,0,1-.47,4.76,5.6,5.6,0,0,1-5,5,16.53,16.53,0,0,1-1.91.2c-8.4.37-10.31-1.57-10.12-8.82,0.43-16.27-9.36-21.44-22.07-21.39-23,.08-46.06,0-69.09,0a40.69,40.69,0,0,0-4.79.19c-3.54.42-4.93,1.85-5.32,5.61a65.62,65.62,0,0,0-.21,6.71q0,49.42,0,98.84c0,2.55.1,5.12,0.31,7.66a5.57,5.57,0,0,0,4.74,5.31,45,45,0,0,0,8.54,1c24.62,0.17,49.26.58,73.83-1.41a77.26,77.26,0,0,0,42.3-16.42c5.9-4.61,10.42-10.35,14.57-16.43a155.55,155.55,0,0,0,11.4-20,12.47,12.47,0,0,1,17-5.37,3,3,0,0,1,1.65,3.2,29.74,29.74,0,0,1-1.48,5.53q-13.31,35.48-26.71,70.93c-0.56,1.5-1.22,3-1.8,4.45a7.45,7.45,0,0,1-7.3,5.19c-2.88.07-5.75,0.15-8.63,0.15h-98.84Z"/><path d="M1483,1274.47c42.16,0.75,82.47,9.26,120.14,28.83,11,5.69,11.07,5.62,13.05,18,3.29,20.52,6.46,41.07,9.68,61.6,0,0.32.12,0.63,0.17,0.94,1.22,8.06,0,10.9-9.95,10.09a6.15,6.15,0,0,1-5.66-4.45c-0.73-2.11-1.28-4.29-2-6.4-5.68-16.08-12.61-31.39-24.5-44.11-12.58-13.45-27.83-22.35-45.06-28.2-25.3-8.59-51.2-10.48-77.63-7.27a122.74,122.74,0,0,0-49.59,16.84c-24.5,14.88-40.83,36.37-50.38,63.24-5.17,14.55-8.72,29.4-9.59,44.87-0.41,7.33-1.79,14.6-1.46,22,0.86,19.88,2.88,39.63,9.78,58.44,16.35,44.56,47.4,73.07,94,83.1,36.81,7.92,72.75,3.53,106.63-12.9,30.43-14.75,49.64-39.62,59.58-71.69a138,138,0,0,0,5.83-29.12,29.37,29.37,0,0,1,1-5.63,4.25,4.25,0,0,1,3.37-3.1,30.55,30.55,0,0,1,6.64-.49c3.73,0.2,5.36,1.84,5.25,5.41-0.21,7-.53,14.07-1,21.08-1.08,15-2.53,29.94-3.38,44.94a33.37,33.37,0,0,1-7.36,19.28c-16.06,20.79-36.86,35.2-60.43,46.07a185.47,185.47,0,0,1-55.1,15.93c-16.17,2-32.35,3.13-48.78,1.65-16-1.44-31.79-3.52-47.19-8-28.12-8.18-53.36-21.52-73.91-42.75a151.7,151.7,0,0,1-34.39-56,187.07,187.07,0,0,1-9.55-43,211.37,211.37,0,0,1,6.45-82.67,154.42,154.42,0,0,1,36.93-65.36,134.86,134.86,0,0,1,29.14-23.32,192.26,192.26,0,0,1,79.59-26.1C1463.21,1275.28,1473,1274.18,1483,1274.47Z"/><path d="M145.15,1274.53c10.66-.45,23,1.46,35.36,3,5.06,0.63,10.18.92,15.27,1.26,2.23,0.15,4.48,0,6.71.07,9.32,0.31,10.57,1.48,10.85,10.53,0.18,5.75.15,11.51,0.24,17.27,0.14,8.95,0,17.9,1.11,26.82a51.54,51.54,0,0,1-.25,10.5,4,4,0,0,1-2.79,3.6,19.67,19.67,0,0,1-11.33,0,4.45,4.45,0,0,1-3-3.48c-0.69-2.79-1.29-5.6-1.89-8.42-2.86-13.48-10.22-23.48-23.28-28.32-22-8.17-43.88-7.6-65.15,2.79-7.29,3.56-13.12,9.12-18.11,15.45a31.24,31.24,0,0,0-6.46,17.71c-1.22,17.35,4.87,31.15,18.64,41.82q42.08,32.61,84,65.48c6,4.72,11.87,9.75,18.11,14.2a68.07,68.07,0,0,1,25.9,35.91c5.5,17.39,7.66,34.91,2.5,52.84a91.53,91.53,0,0,1-29.19,45.27c-19,16.17-41.32,24.78-66,25-29.61.28-58.71-3.82-85.49-17.93-2.82-1.49-5.49-3.27-8.27-4.85-5.52-3.14-7.65-8.05-8.42-14.19a118.59,118.59,0,0,1,.27-28.69c1-8.87,3-17.64,4.5-26.46a22,22,0,0,1,.77-2.77q3.89-12.31,16.19-8.27a4.27,4.27,0,0,1,3,3.44,13.2,13.2,0,0,1,.15,4.75c-1.19,5.78-.29,11.46.49,17.16,2.89,21.32,14.77,35.94,34.41,43.64,23.41,9.17,47,7.54,70.19-1.64a50.57,50.57,0,0,0,19.94-14.6,39.73,39.73,0,0,0,9.65-22.55c2.18-23.33-2.71-35.14-21.15-50.24-6.68-5.47-13.6-10.64-20.45-15.89q-40-30.63-80-61.23a69.82,69.82,0,0,1-23.69-31.89c-5.91-16.2-8.6-32.74-4.68-49.89,3.82-16.74,12-31,25-42.2,19.13-16.49,41.56-24.71,66.84-25C138.16,1274.5,140.72,1274.53,145.15,1274.53Z"/><path d="M1470.26,1841.77c-8.62,0-17.25.05-25.87,0a44.8,44.8,0,0,1-7.58-.76,2.88,2.88,0,0,1-1.78-2c-0.13-.74.61-1.66,1-2.46a1.32,1.32,0,0,1,.8-0.49c7.91-2,9-7.82,8.93-14.78-0.14-27.47-.05-54.93-0.06-82.4,0-1.6-.06-3.19-0.15-4.79a7.8,7.8,0,0,0-5.14-7.38,36.59,36.59,0,0,1-4.37-1.9,2.85,2.85,0,0,1-1.48-3.23,3.16,3.16,0,0,1,2.55-2.53,37.63,37.63,0,0,1,6.63-.74c16.93-.05,33.86-0.39,50.78.09,18.32,0.51,34.27,6.87,46.56,21.1a43.17,43.17,0,0,1,7.29,11.19c10.6,24.86,9.22,48.53-7.59,70.41-6.42,8.36-15.17,13.58-25,17a62,62,0,0,1-20.67,3.62c-8.3,0-16.61,0-24.91,0v0.05Zm-8.6-62.75h0q0,19.67,0,39.35c0,2.24,0,4.49.12,6.71,0.33,4.51,1.52,6.08,5.68,6.14,10.23,0.14,20.51.51,30.69-.27,14.51-1.11,25.55-8.95,32-21.59,10.14-19.8,9.93-40.12-.86-59.79-6-11-15.7-17.3-28.11-19.62-9.86-1.85-19.77-1.33-29.66-1.29-8.86,0-9.77,1-9.85,10.06C1461.57,1752.14,1461.66,1765.58,1461.66,1779Z"/><path d="M1824,1843.68a60.61,60.61,0,0,1-18-2.73c-20.75-6.41-33.61-20.58-39.34-41-4.5-16-4-32.22,2.56-47.91,7.83-18.84,21.85-30.52,41.61-34.69,12.58-2.65,25.38-2.57,37.86,1.6,16,5.36,27.74,15.53,34.5,31.07,9.53,21.93,9,43.9-2.8,64.53C1868.81,1834.85,1850.14,1844,1824,1843.68Zm-42-63.07a77.4,77.4,0,0,0,4.21,24c5,14.24,18.64,27.86,38.32,28.73,18.1,0.79,33-7.91,40.72-24.81,8.73-19.07,9-38.64.09-57.57-7.7-16.44-21.09-25.35-39.79-24.74s-31.26,10-38.56,26.76C1783.41,1761.25,1782.08,1770.14,1782,1780.61Z"/><path d="M1241.62,1770q0-13.44,0-26.88,0-3.36-.09-6.72c-0.12-4.87-1.76-8.72-6.82-10.4-1.83-.61-3.6-1.49-3.65-3.86,0-1.93,1.7-3.55,4.87-3.61,9-.18,17.91-0.13,26.86,0a9.31,9.31,0,0,1,3.58,1.15c1.73,0.8,1.92,3.75.37,4.88a4.63,4.63,0,0,1-1.59,1c-6.53,1.23-7.53,5.86-7.5,11.48,0.11,20.16.09,40.31,0.07,60.47a44.74,44.74,0,0,0,4.28,18.55,28.88,28.88,0,0,0,11.37,12.65c15.57,9.86,47.19,5.15,50.93-24.58a78.27,78.27,0,0,0,.41-9.58q0.06-27.36,0-54.71c0-1.28-.06-2.56,0-3.84,0.1-4.94-1.25-8.88-6.75-10.08a4.78,4.78,0,0,1-1.73-.79,3.27,3.27,0,0,1-1.63-3.2,3.34,3.34,0,0,1,2.34-2.74,8,8,0,0,1,2.78-.65q12-.07,24,0a6.28,6.28,0,0,1,2.74.77,2.92,2.92,0,0,1,1.8,3.08,7.73,7.73,0,0,1-1.26,2.45,1.29,1.29,0,0,1-.8.49c-7.53,1.39-8.09,6.91-8.05,13.09,0.12,17.28,0,34.55.06,51.83a98.35,98.35,0,0,1-1.37,16.23c-3.18,19.55-15.92,32.51-35.9,36.3-11.06,2.1-22.26,1.61-32.94-3.2-16.41-7.4-25.69-19.67-26.23-37.87-0.31-10.55-.06-21.11-0.06-31.67h-0.08Z"/><path d="M962.21,1730.88c0,3.18.56,6.45-.67,9.49a3.23,3.23,0,0,1-2.15,1.64,3,3,0,0,1-2.52-.88,44.35,44.35,0,0,1-2.4-5.18c-4.09-8.85-13.56-12.27-22.5-8.14-10.27,4.75-13.37,16.64-6.61,25.72a51.22,51.22,0,0,0,5.23,5.61c9.56,9.45,19.08,18.93,28.74,28.27,8.85,8.56,11.53,18.84,9,30.68-3.24,15.32-13.34,24.9-28.81,26.63a48.57,48.57,0,0,1-29.57-6.22c-3.63-2-5.75-4.92-5.94-9.18-0.26-5.79,0-11.53,1.84-17.07a13.35,13.35,0,0,1,1.83-3.31c1.14-1.6,3.9-1.14,4.8.64,1.21,2.38,1,5,1.37,7.49,1.29,9.74,6.78,15.42,16.54,17.18a21.36,21.36,0,0,0,21.28-10c4.07-7.14,3.24-17-2.63-23.19-6.17-6.48-12.83-12.49-19.31-18.67-3.93-3.75-8.11-7.27-11.85-11.2a48.49,48.49,0,0,1-7-9.1c-9.15-15.9-1.6-33.17,8.47-40.41a29.13,29.13,0,0,1,16-5.72,84.41,84.41,0,0,1,21,1.91c4.43,0.91,5.42,1.94,5.78,6.27C962.36,1726.39,962.21,1728.64,962.21,1730.88Z"/><path d="M2009.48,1716c5.52-.37,11.11,1.18,16.79,2a5.22,5.22,0,0,1,4.94,5,66.81,66.81,0,0,1-.09,16.24,3.22,3.22,0,0,1-3.13,3,3.08,3.08,0,0,1-3.06-1.87c-0.82-1.72-1.3-3.61-2.16-5.31-3.68-7.3-10.88-10.34-19.45-8.32-7.25,1.72-11.75,7.44-12.23,15.22-0.4,6.6,2.32,11.65,7,16.07,9.05,8.55,18,17.27,26.91,25.92,0.69,0.67,1.31,1.4,2,2,11,9.55,12.48,21.86,9.51,35-3.15,14-14.79,23.18-29.92,23.92a50.77,50.77,0,0,1-26.78-6c-4.41-2.36-6.59-5.79-6.55-10.77s-0.16-10.25,1.35-15.21a17.22,17.22,0,0,1,2.1-4.19c0.79-1.23,3.64-.93,4.1.43a45.57,45.57,0,0,1,1.08,4.6c0.62,2.79.93,5.7,1.91,8.37a19.21,19.21,0,0,0,21.48,12.12c11.51-2,18.54-10.38,17.9-21.19a19.65,19.65,0,0,0-5.19-12.09c-2.32-2.62-4.91-5-7.45-7.44q-11.81-11.21-23.69-22.35a36.78,36.78,0,0,1-9.58-15.25c-6.9-20.1,9.92-40.15,28-39.9C2006.62,1716,2007.9,1716,2009.48,1716Z"/><path d="M1108.06,1780.37q0,19.17,0,38.35c0,2.24,0,4.47.08,6.71,0.08,5,2.17,8.55,7.29,9.9,1.83,0.48,3.81,1,4.14,3.34,0.23,1.66-1.72,3-5.12,3-9.59.08-19.17,0-28.76,0a6.9,6.9,0,0,1-4.52-1.23,2.83,2.83,0,0,1-.23-3.43c1.18-1.27,2.78-1.47,4.28-1.94,4.21-1.32,6.06-4.49,6.49-8.6a75.51,75.51,0,0,0,.25-7.66q0-38.83,0-77.65c0-12.24-.28-12.46-12.21-12.54q-6.71,0-13.42.1c-5.35.11-9.24,2.16-10.41,7.9a10.71,10.71,0,0,1-1.67,3.37c-0.72,1.14-3.54,1.06-4.23-.09a7.36,7.36,0,0,1-1.2-2.57,70.32,70.32,0,0,1-.11-17.2c0.35-3.21,2.08-4.54,5.31-4,25.41,4.29,51,1.42,76.52,1.94,4.72,0.1,9.47-1.27,14.22-1.84,3.93-.47,5.5.7,5.63,4.55,0.18,5.1.08,10.22-.08,15.33a9.83,9.83,0,0,1-1.23,3.53c-0.44.95-2.8,1.18-3.37,0.34a10.54,10.54,0,0,1-1.77-3.27c-1.28-5.57-4.91-8-10.37-8-6.39,0-12.79-.17-19.17,0-4.78.16-6,1.54-6.25,6.58-0.21,4.78-.11,9.58-0.11,14.38Q1108,1765,1108.06,1780.37Z"/><path d="M1668.93,1780.83q0,17.72,0,35.43c0,1.92.05,3.83,0,5.75,0,6,2,10.6,8.13,12.63,1.81,0.6,3.73,1.17,3.83,3.61,0.08,1.93-1.58,3.32-4.92,3.36-10.21.11-20.43,0-30.64,0a5.11,5.11,0,0,1-2.72-.73,3.63,3.63,0,0,1-1.51-2.24,3,3,0,0,1,.95-2.48,23.62,23.62,0,0,1,4.37-1.83c4-1.55,6-4.62,6.26-8.8,0.15-2.23.19-4.46,0.19-6.7q0-38.79,0-77.57c0-1.28-.05-2.55,0-3.83,0.09-5.7-1.77-10-7.91-11.42a9.56,9.56,0,0,1-3.25-1.85c-1.06-.79-0.81-3.58.4-4.23a8.36,8.36,0,0,1,3.49-1.34c10.21-.13,20.42-0.12,30.63-0.1a6.9,6.9,0,0,1,2.77.66,3.38,3.38,0,0,1,2.2,2.86,3.28,3.28,0,0,1-1.75,3.13,5.2,5.2,0,0,1-1.75.75c-7.17,1.38-8.79,6.49-8.77,12.8q0,21.07,0,42.14h0Z"/><path d="M704.3,291.76c7.36,0,14.72-.21,22.06,0,12.46,0.44,24.07-2.9,35.33-7.66a47.37,47.37,0,0,0,23.5-21.73c4-7.32,4.19-14.64-.05-21.91-2.5-4.27-5.67-5.74-10.45-4.73-2.81.59-5.52,1.66-8.34,2.17a5.68,5.68,0,0,1-6.77-4,16.16,16.16,0,0,1,2.65-16.28c8-10.16,26.08-15.21,37.7-1.8,1.88,2.17,3.8,4.32,5.66,6.52a20.51,20.51,0,0,1,5,12.24c0.51,9.27.64,18.54-1.83,27.63a28,28,0,0,1-4.16,9.63c-7.1,9.54-14.94,18.34-25.4,24.39-8.35,4.83-17.41,8-26.43,11.27a21.92,21.92,0,0,1-6.56,1.33c-11.82.43-23.67,1.19-35.45-.3-19.37-2.44-38.74-4.08-58.31-3.45a124.64,124.64,0,0,0-23.73,3c-2.49.56-4.94,1.37-7.56,0.93a3.9,3.9,0,0,1-3.47-2.86,3.76,3.76,0,0,1,1.77-4.13,22,22,0,0,1,4.22-2.23,91.08,91.08,0,0,1,28.93-6.3C669.82,292.81,687,290.58,704.3,291.76Z"/><path d="M1040.26,679.07c0-5.12,0-10.24,0-15.36-0.12-19.22,1.74-38.3,3.32-57.43,1.8-21.7,4.8-43.21,8-64.72,3.52-23.72,7.17-47.42,10.62-71.16,3.31-22.78,6.89-45.52,9.16-68.45,1.39-14,3.28-27.94,4.77-41.93,0.91-8.58,1.76-17.18,2.18-25.8,1.19-24.59,3.29-49.18,2.07-73.82-2.21-44.64-9.28-88.33-25.36-130.35-6.31-16.49-10.17-33.7-9-51.63,0.12-1.92.1-3.85,0.32-5.75,1.89-16.13,10.61-26.29,26.35-30.43,12-3.15,24.15-3,36.21-1.16,18.64,2.86,37.18,6.43,55.8,9.49,25.87,4.25,51.74,8.58,77.68,12.38,23.41,3.42,46.9,6.33,70.39,9.13,15.55,1.85,31.16,3.26,46.77,4.6,21.65,1.86,43.31,3.77,65,5.08,13.72,0.83,27.5.54,41.26,0.88,6.71,0.16,13.41.65,20.11,0.92a90.81,90.81,0,0,0,11.51.17c21.39-1.88,42.86-.62,64.26-1.57,18.52-.82,37-2.19,55.52-3.23,11.17-.63,22.35-1,33.49-2.25,16.53-1.78,33.12-2.88,49.64-4.7,19.07-2.1,38.1-4.51,57.11-7.08,32.35-4.37,64.51-9.86,96.15-17.95,8.37-2.14,16.63-4.6,25.18-6a56,56,0,0,1,25.64,1.75c14.65,4.48,22.34,15.37,25.37,29.82,3.54,16.9-1.28,32.27-9.35,46.91a61.15,61.15,0,0,1-4.16,6.45c-13.64,18.72-21.6,39.84-26.23,62.33a327.55,327.55,0,0,0-4.58,33.23c-3,30-1.87,60.09-1.42,90.14,0.2,13.4,1.81,26.78,2.88,40.16,0.74,9.24,1.44,18.49,2.54,27.69,2.81,23.49,5.53,47,8.85,70.41,4.3,30.39,9.46,60.67,13.63,91.08,2,14.87,3.61,29.82,4.92,44.8,3.92,44.69,4.17,89.45,3.14,134.22-0.34,15-2.13,30-3.23,44.94A439.21,439.21,0,0,1,1909,819c-5.22,26-15.6,49.94-29.9,72.28-18.48,28.86-42.1,53-67.65,75.51-40,35.19-84.35,64.43-129.06,93.13-19.11,12.27-38.28,24.45-57.34,36.81q-29.39,19.07-58.58,38.43-39.13,26.1-76.34,54.9c-1,.78-2,1.62-3,2.39-4.9,3.69-6.14,3.78-10.93.11-8.89-6.8-17.54-13.94-26.59-20.52-29-21.07-58.42-41.48-88.71-60.67-17.84-11.3-35.54-22.8-53.31-34.21-27.72-17.81-55.45-35.61-82.6-54.29a806.5,806.5,0,0,1-77.37-59.83,387.4,387.4,0,0,1-50-52.88c-23.56-30.4-39.16-64.26-45.65-102.36q-6.36-37.39-10-75.09C1040.18,714.85,1040.6,697,1040.26,679.07Zm53.16-628.73a58.83,58.83,0,0,0-17.86,2.13c-9.38,2.42-15.82,7.78-18,17.81-1.83,8.61-1.6,17.13-.48,25.75,1.79,13.75,6,26.83,10.79,39.74,13.52,36.65,20.2,74.71,22.38,113.51,1.76,31.32.71,62.72-2.07,94-2.3,25.79-4.69,51.58-8.58,77.21-3.26,21.5-5.92,43.08-9,64.6-2.79,19.31-5.93,38.56-8.73,57.87-3.21,22.15-6.27,44.31-8.06,66.65-1.41,17.53-2.69,35.07-3.17,52.64a657.32,657.32,0,0,0,3.42,87.18,622.1,622.1,0,0,0,12,73.82,171.17,171.17,0,0,0,9.37,29.21c11.73,27.37,28.55,51.33,48.76,73.08,29.79,32.06,63.9,59,99.65,83.93,44.36,30.94,90.37,59.39,135.84,88.64,26.38,17,52.51,34.29,78,52.56,13,9.32,25.7,19,38.54,28.58,4.87,3.62,5.74,3.68,11-.08,3.89-2.8,7.56-5.91,11.42-8.76q47.83-35.43,98-67.53c27-17.2,53.74-34.74,80.65-52,38-24.4,75.58-49.26,110.69-77.73,25.18-20.42,48.74-42.42,68.67-68.09,21.1-27.18,36.43-57.06,42.77-91.22,2.28-12.28,4-24.61,5.63-37,3.14-23.18,4.37-46.5,4.87-69.82,0.62-28.77.35-57.55-1.21-86.34-1.09-20.14-2.55-40.25-5-60.21-4-32.36-9.44-64.55-14-96.84q-4.54-31.81-8.43-63.71c-1.64-13.32-2.7-26.72-4.12-40.07-1.85-17.49-3.38-35-3.49-52.62-0.13-20.48,0-41-.06-61.44a294.84,294.84,0,0,1,6-58.13c3.71-18.61,9.49-36.55,19.05-53.06,3.52-6.08,7.48-11.92,11.3-17.83,7.93-12.26,11.69-25.62,9.85-40.16-1.32-10.37-5.79-19.06-16.28-23-5.71-2.16-11.73-3.48-17.87-2.71-7,.88-13.92,1.76-20.74,3.74a538.08,538.08,0,0,1-58,13.13c-28.36,4.94-56.82,9.2-85.41,12.57-14.92,1.76-29.89,3.16-44.84,4.62-8.59.83-17.24,1.18-25.8,2.21-22.24,2.69-44.64,3.28-67,4.85-16.26,1.14-32.59,1.18-48.89,1.78-39.66,1.46-79.32-.21-119-1.72-1,0-1.91-.14-2.87-0.22-12.74-1.05-25.49-2.08-38.23-3.17-16.57-1.42-33.17-2.54-49.68-4.42-22.87-2.6-45.68-5.76-68.51-8.72C1213.81,70,1171.24,62.79,1128.76,55,1117.46,52.88,1106.19,50.27,1093.43,50.33Z"/><path d="M1530.42,576.31c1.07-.4,1.13-1.36,1.21-2.26,0.63-7.32,1.27-14.65,1.83-22,0.87-11.47,1.58-23,2.54-34.42,1.63-19.43,3.43-38.84,5.12-58.26,0.72-8.28,1.53-16.56,2-24.85,1.32-22.66,3.53-45.25,5.63-67.85,1.09-11.77,1.6-23.6,2.51-35.4q0.74-9.56,2-19.08c1.08-8.59,3.9-11.92,12.39-13.51,10.68-2,21.46-3.46,32.21-5.09,6.32-1,12.64-2,19-2.68,7.33-.81,10.68,1.68,12.41,8.84a36.64,36.64,0,0,1,.88,5.68c1.48,18.48,2.8,37,4.39,55.44,1.51,17.51,3.33,35,4.92,52.51,0.78,8.59,1.11,17.22,2,25.82,1.84,18.44,3,37,4.51,55.43,1.83,21.65,3.83,43.3,5.77,64.94a4.4,4.4,0,0,0,.91,1.14c1.26-9.56,2.65-18.69,3.64-27.86,2.28-21.3,4.29-42.62,6.56-63.92,1.39-13,3.1-26,4.59-39.05,0.94-8.26,1.74-16.53,2.6-24.8,1.5-14.31,3-28.61,4.52-42.92,1-8.9,2-17.78,3-26.68,1.45-13.35,2.85-26.7,4.29-40,0.14-1.27.35-2.53,0.56-3.79,1.09-6.36,4.61-10.45,11.1-11.58q9-1.56,18-2.9,22.29-3.32,44.61-6.52a89,89,0,0,1,10.5-1c4.45-.1,7.21,2.46,7.52,7a32.22,32.22,0,0,1-.51,7.62c-5.21,30.25-10.53,60.49-15.74,90.74-3.36,19.54-6.56,39.11-9.88,58.65q-11.81,69.52-23.68,139c-5.29,30.89-10.73,61.75-16.07,92.63-3.65,21.11-7.21,42.24-10.84,63.35-0.54,3.15-1.19,6.29-1.88,9.41-1.32,6-5.11,9.42-11,10.61-3.14.63-6.27,1.28-9.44,1.74-13.92,2-27.84,4.06-41.78,6a77.71,77.71,0,0,1-9.57.53c-4.79.06-8.06-2.38-9.1-7-1.48-6.54-2.67-13.16-3.64-19.8q-5.7-38.91-11.17-77.85c-2.21-15.51-4.35-31-6.56-46.54-0.25-1.78.19-3.91-1.92-5-1.45.64-1.19,2-1.36,3.17q-4.71,33.72-9.38,67.45-5.63,40.38-11.3,80.75c-0.13,1-.23,1.91-0.37,2.86-1,6.44-4.69,10.5-11,11.82s-12.59,2.18-18.91,3.12c-11.07,1.65-22.15,3.2-33.23,4.8-0.63.09-1.26,0.25-1.89,0.35-12.08,1.84-15.88-.75-18-12.47-3.14-17.31-6.2-34.63-9.32-51.94q-7-38.71-13.94-77.42-8.66-48.16-17.31-96.31-11.63-64.68-23.26-129.36-6.13-34-12.38-68c-0.46-2.52-1-5-1.28-7.57-0.63-6,1.72-9.67,7.57-11.65a36.09,36.09,0,0,1,6.53-1.52q31.82-4.51,63.65-8.91a27.2,27.2,0,0,1,3.81-.43c5.19,0,8.3,2.32,9.81,7.45a44.54,44.54,0,0,1,1.53,7.51c1.44,12.7,2.76,25.42,4.16,38.13,1.72,15.57,3.5,31.13,5.23,46.69,2.19,19.7,4.31,39.4,6.53,59.1,1.46,13,3.08,26,4.54,39.06,1.74,15.57,3.39,31.14,5.09,46.71,0.76,7,1.54,14,2.39,21C1529.26,575.6,1530,575.94,1530.42,576.31Z"/><path d="M1302.07,680.8c0,12.15-.12,24.31,0,36.46,0.17,13.25,5.72,17.76,18.89,15.69,8.61-1.35,14.51-7.28,15.27-15.93,0.67-7.64,1.13-15.31,1.25-23,0.2-12.79-.11-25.59.11-38.38,0.19-10.9-1-21.71-1.51-32.57-0.46-9.76-5-16.92-13.21-22-12.5-7.75-24.94-15.61-37.42-23.39q-19.53-12.19-39.08-24.35a75.09,75.09,0,0,1-7.13-4.86c-10-8-16.48-18.14-16.59-31.12-0.28-32.62-.57-65.25.15-97.85,0.37-16.69,7.41-31.74,17-45.2,16.94-23.7,39.5-38.78,68.8-42.8,9.18-1.26,18.36-2.55,27.56-3.7,17.9-2.25,34.4,2.07,49.31,11.78A66.8,66.8,0,0,1,1413,375.52a82.33,82.33,0,0,1,4.26,26.41c-0.06,7.36-.05,14.71,0,22.07,0,8.68-3.93,14.36-12.11,17.6-18.14,7.18-36.14,14.68-54.22,22a37.14,37.14,0,0,1-6.36,2.08,5.12,5.12,0,0,1-6.35-4.33,55.73,55.73,0,0,1-.56-8.59c-0.13-11.83.41-23.67-1.1-35.45a39.44,39.44,0,0,0-.78-5.69c-1.23-4.38-4.15-7.33-8.68-7.92-13-1.71-24.55,3.42-24.85,19.27-0.35,18.86-.11,37.74,0,56.61a49.16,49.16,0,0,0,1,7.58A23.11,23.11,0,0,0,1314.73,504c9.6,5.76,19.08,11.71,28.66,17.5q25,15.13,50.16,30.13a58.74,58.74,0,0,1,10.63,8.13,32.78,32.78,0,0,1,9.84,17.19c1.81,8.46,3.31,16.88,3.27,25.61-0.15,33.9.1,67.8-.11,101.71-0.26,41.79-20.78,71.43-56.24,91.59-11.26,6.4-23.93,8.82-36.68,10.48-7,.91-14,1.73-20.93,2.62-21.94,2.78-41.32-3.5-57.7-17.86-15.16-13.29-22.77-30.7-23.13-50.9-0.33-18.54-.11-37.1-0.12-55.65,0-3.52.17-7,0-10.55-0.42-8.5,3.66-13.93,11.24-17.11,5.6-2.35,11.19-4.74,16.81-7q19.53-8,39.1-15.9c9.06-3.66,12.29-1.57,12.45,8.51,0.2,12.79,0,25.59,0,38.38h0Z"/><path d="M1427.79,1055.81c0.09-4.86.2-9.63,1.81-14.26,3.08-8.84,10-14.15,19.27-14.77a39.5,39.5,0,0,1,21.25,4.77c2.26,1.18,4.37,2.65,6.56,4,0.83,0.5,1.9.88,2.55,0.07a4.17,4.17,0,0,0,.71-2.64,18.47,18.47,0,0,0-4-10.6c-9.87-12.38-22.42-19.7-38.58-20.14-7.69-.21-14.41,1.79-20.25,7.06-4.53,4.08-7.36,3.81-11.5-.17s-5.21-8.74-3.09-14c2.51-6.23,7.33-9.58,13.85-10.36,7.06-.85,14.07-0.46,20.75,2.32,5.31,2.21,10.54,4.61,15.82,6.86,2.3,1,3.42.42,4.41-2a24.47,24.47,0,0,0,.88-2.74c2.71-10.05,13.18-13.11,20.47-11.73,8.74,1.65,15.3,6.26,18.45,14.92,0.44,1.2.59,2.49,1,3.7,0.83,2.44,2.1,3.17,4.33,2.31,10-3.87,16.59-10.6,17.81-21.68,0.28-2.54.17-5.12,0.46-7.65,0.45-3.8,2.23-5.67,5.91-6.58,8.9-2.2,17.5,5.41,16.48,14.76a23.44,23.44,0,0,1-6.25,13.74,36.22,36.22,0,0,1-9.92,7.45c-10,5.22-20.81,8.12-31.9,10-4.73.78-9.49,1.33-14.23,2a1.79,1.79,0,0,0-1.15,2.91c5.29,6,7.79,13.09,8.75,20.9a2.68,2.68,0,0,0,3.49,2.34c1.56-.31,3.07-0.9,4.64-1.16a72.44,72.44,0,0,1,7.58-1c20.49-1.27,29.25,20.43,21.67,34.75a34.75,34.75,0,0,1-10.79,12,106.39,106.39,0,0,1-20.83,11.77c-4.71,2-9.27,4.31-13.82,6.63-1.72.88-3.2,2.29-2.92,4.53,0.31,2.53,2.1,3.9,4.35,4.58,3.82,1.16,6.84-.37,9.43-3.13,2-2.16,3-4.89,4.18-7.5,0.94-2,2.66-2.62,4.75-2.32a11.31,11.31,0,0,1,6,2.83,8.33,8.33,0,0,1-.49,13.27c-2.61,2-5.7,2.87-8.81,3.63a49,49,0,0,1-37.87-5.83C1438.7,1097.51,1428.3,1079.43,1427.79,1055.81Zm10.27,0.68a52.56,52.56,0,0,0,8.54,29.06,30.13,30.13,0,0,0,3.78,4.26,0.91,0.91,0,0,0,.86.13,2.36,2.36,0,0,0,.91-1.35A54.1,54.1,0,0,0,1451,1083c-3.32-13,.44-23.92,9.56-33.33a60.34,60.34,0,0,0,4.52-4.93,2.86,2.86,0,0,0-.06-3.57c-3.78-5-11.89-6.92-17.31-4.1a16.62,16.62,0,0,0-8.92,11.83A65.6,65.6,0,0,0,1438.05,1056.5Zm44.52-54.63c-0.66,0,.91,0,2.48-0.14,1.9-.16,4-0.36,4.67-2.46,0.62-1.93-.46-3.66-1.66-5.17-3-3.71-6.72-5.59-11.54-4.88-3.72.55-5.82,3.43-5.52,7.47,0.23,3.16,2,4.81,5.58,5.16C1477.82,1002,1479.08,1001.86,1482.57,1001.86Z"/></svg>